<svg xmlns="http://www.w3.org/2000/svg" width="600" height="600" >
<path style="fill:none;stroke:#00bd7b; stroke-width:1;  stroke-linejoin:round;" d="M 594.686,243.786 583.067,253.645 597.634,262.4 Z M 541.287,285.807 554.483,292.017 556.368,274.656 Z M 558.076,250.471 534.651,244.871 537.969,265.339 Z M 526.207,296.959 541.758,304.277 541.287,285.807 Z M 571.448,300 585.724,300 571.448,281.752 Z M 571.448,245.257 590.575,225.393 571.448,227.009 Z M 571.448,263.505 571.448,281.752 584.541,272.076 Z M 532.253,133.071 553.298,139.252 542.705,123.664 Z M 479.994,80.8116 491.227,68.846 476.336,57.2949 Z M 457.791,82.6781 472.076,99.1026 479.994,80.8116 Z M 493.058,93.8766 491.227,68.846 479.994,80.8116 Z M 484.915,155.935 465.912,156.588 477.845,172.266 Z M 496.566,172.266 484.915,155.935 477.845,172.266 Z M 504.107,154.846 501.345,139.604 484.915,155.935 Z M 506.123,106.942 505.364,81.3094 493.058,93.8766 Z M 493.058,93.8766 505.364,81.3094 491.227,68.846 Z M 453.666,120.006 458.087,102.587 439.515,112.541 Z M 430.377,127.472 453.666,120.006 439.515,112.541 Z M 449.246,137.426 467.472,135.684 453.666,120.006 Z M 421.239,142.403 435.242,139.915 430.377,127.472 Z M 468.786,113.909 489.255,113.474 472.076,99.1026 Z M 468.786,113.909 479.485,125.232 489.255,113.474 Z M 453.666,120.006 468.786,113.909 458.087,102.587 Z M 453.666,120.006 467.472,135.684 468.786,113.909 Z M 465.912,156.588 467.472,135.684 449.246,137.426 Z M 465.912,156.588 484.915,155.935 482.2,140.584 Z M 482.2,140.584 484.915,155.935 501.345,139.604 Z M 467.472,135.684 482.2,140.584 479.485,125.232 Z M 467.472,135.684 465.912,156.588 482.2,140.584 Z M 477.845,172.266 465.912,156.588 459.125,172.266 Z M 467.472,135.684 479.485,125.232 468.786,113.909 Z M 519.188,120.006 531.154,108.773 506.123,106.942 Z M 303.122,50.4215 280.427,61.8769 306.244,72.291 Z M 254.015,47.2972 231.915,62.9184 247.385,75.4153 Z M 254.176,91.0364 236.821,97.2848 253.932,111.344 Z M 271.842,154.771 253.199,172.266 271.919,172.266 Z M 245.01,134.776 236.235,116.03 217.611,137.9 Z M 236.821,97.2848 236.235,116.03 253.932,111.344 Z M 236.821,97.2848 219.465,103.533 236.235,116.03 Z M 234.478,172.266 253.199,172.266 249.104,153.521 Z M 306.867,92.2861 314.979,112.281 331.333,101.45 Z M 306.244,72.291 306.867,92.2861 324.346,83.7465 Z M 289.238,97.2848 297.077,116.03 306.867,92.2861 Z M 271.532,84.7879 289.238,97.2848 288.888,78.5395 Z M 297.077,116.03 301.171,134.776 314.979,112.281 Z M 253.199,172.266 248.986,191.426 268.117,189.563 Z M 264.314,206.861 244.774,210.586 250.742,226.021 Z M 244.774,210.586 248.986,191.426 226.756,207.393 Z M 287.715,228.15 282.449,209.522 269.872,224.158 Z M 268.117,189.563 248.986,191.426 264.314,206.861 Z M 253.199,172.266 234.478,172.266 248.986,191.426 Z M 249.103,276.05 266.069,284.033 270.164,265.405 Z M 218.664,303.994 227.346,320.76 245.576,313.84 Z M 249.103,276.05 232.138,268.067 233.884,290.022 Z M 195.046,289.358 189.223,305.991 218.664,303.994 Z M 308.023,263.505 289.47,274.909 304.012,281.752 Z M 214.438,333.003 203.444,317.967 188.225,331.939 Z M 323.035,291.019 300,300 316.966,307.983 Z M 323.035,291.019 304.012,281.752 300,300 Z M 333.931,315.967 337.88,298.004 316.966,307.983 Z M 345.778,262.079 329.752,249.819 325.49,269.207 Z M 329.752,249.819 326.744,227.009 312.035,245.257 Z M 353.383,206.196 338.277,211.043 353.675,226.154 Z M 366.749,232.918 375.906,210.187 353.675,226.154 Z M 380.074,191.227 365.522,172.266 359.452,189.231 Z M 324.069,190.514 309.36,172.266 302.145,190.894 Z M 312.035,245.257 295.905,257.802 308.023,263.505 Z M 308.023,263.505 295.905,257.802 289.47,274.909 Z M 325.49,269.207 308.023,263.505 304.012,281.752 Z M 325.49,269.207 329.752,249.819 308.023,263.505 Z M 326.744,227.009 338.277,211.043 320.058,208.762 Z M 312.035,245.257 326.744,227.009 308.775,223.588 Z M 341.244,240.125 353.675,226.154 326.744,227.009 Z M 294.317,240.695 295.905,257.802 312.035,245.257 Z M 308.775,223.588 287.715,228.15 294.317,240.695 Z M 329.752,249.819 341.244,240.125 326.744,227.009 Z M 320.058,208.762 324.069,190.514 302.145,190.894 Z M 308.775,223.588 320.058,208.762 301.839,206.481 Z M 338.277,211.043 324.069,190.514 320.058,208.762 Z M 280.499,246.778 256.709,241.455 270.164,265.405 Z M 295.905,257.802 280.499,246.778 270.164,265.405 Z M 294.317,240.695 287.715,228.15 280.499,246.778 Z M 280.499,246.778 287.715,228.15 269.872,224.158 Z M 283.034,292.017 300,300 304.012,281.752 Z M 221.16,284.035 233.884,290.022 232.138,268.067 Z M 272.056,307.985 253.161,296.276 245.576,313.84 Z M 266.069,284.033 249.103,276.05 253.161,296.276 Z M 189.223,305.991 174.919,318.633 188.225,331.939 Z M 203.444,317.967 189.223,305.991 188.225,331.939 Z M 178.288,279.711 181.573,265.407 164.94,278.714 Z M 195.046,289.358 178.288,279.711 175.003,294.016 Z M 195.046,289.358 201.782,271.394 178.288,279.711 Z M 201.782,271.394 195.046,289.358 221.16,284.035 Z M 198.207,252.1 201.782,271.394 215.172,260.083 Z M 198.207,252.1 181.241,244.116 181.573,265.407 Z M 175.003,294.016 161.613,305.327 174.919,318.633 Z M 195.046,289.358 175.003,294.016 189.223,305.991 Z M 164.94,278.714 148.306,292.021 175.003,294.016 Z M 119.782,325.141 133.989,305.471 116.547,310.244 Z M 135.881,328.468 143.968,315.451 133.989,305.471 Z M 146.364,343.394 135.881,328.468 123.016,340.038 Z M 146.364,343.394 159.392,327.542 135.881,328.468 Z M 159.392,327.542 161.613,305.327 143.968,315.451 Z M 323.599,66.0426 306.244,72.291 324.346,83.7465 Z M 383.462,260.97 367.57,248.108 363.401,267.069 Z M 401.208,265.405 383.462,260.97 379.562,278.711 Z M 401.208,265.405 405.303,246.778 383.462,260.97 Z M 409.398,228.15 400.396,217.062 395.455,234.803 Z M 385.608,222.828 375.906,210.187 366.749,232.918 Z M 309.36,172.266 324.069,190.514 328.081,172.266 Z M 270.164,265.405 252.906,258.753 249.103,276.05 Z M 283.034,292.017 289.47,274.909 266.069,284.033 Z M 295.905,257.802 294.317,240.695 280.499,246.778 Z M 399.064,154.414 383.017,154.414 384.243,172.266 Z M 421.239,142.403 399.064,154.414 412.101,157.335 Z M 395.164,136.561 383.017,154.414 399.064,154.414 Z M 323.599,66.0426 345.05,78.5395 340.955,59.7941 Z M 383.017,154.414 361.427,153.521 365.522,172.266 Z M 280.499,246.778 269.872,224.158 256.709,241.455 Z M 312.035,245.257 308.775,223.588 294.317,240.695 Z M 283.717,189.563 302.145,190.894 290.64,172.266 Z M 271.919,172.266 283.717,189.563 290.64,172.266 Z M 268.117,189.563 282.449,209.522 283.717,189.563 Z M 308.775,223.588 301.839,206.481 287.715,228.15 Z M 308.775,223.588 326.744,227.009 320.058,208.762 Z M 340.115,190.514 324.069,190.514 338.277,211.043 Z M 375.906,210.187 380.074,191.227 359.452,189.231 Z M 346.801,172.266 328.081,172.266 340.115,190.514 Z M 268.117,189.563 283.717,189.563 271.919,172.266 Z M 320.058,208.762 302.145,190.894 301.839,206.481 Z M 309.36,172.266 290.64,172.266 302.145,190.894 Z M 346.509,280.042 337.88,298.004 362.467,290.243 Z M 347.403,41.0488 358.311,53.5457 354.743,28.5519 Z M 336.495,28.5519 347.403,41.0488 354.743,28.5519 Z M 336.495,28.5519 329.601,44.173 347.403,41.0488 Z M 347.403,41.0488 340.955,59.7941 358.311,53.5457 Z M 345.827,153.521 328.081,172.266 346.801,172.266 Z M 365.522,172.266 361.427,153.521 346.801,172.266 Z M 289.238,97.2848 306.867,92.2861 288.888,78.5395 Z M 412.101,157.335 402.963,172.266 421.684,172.266 Z M 409.971,129.217 395.164,136.561 421.239,142.403 Z M 430.377,127.472 409.971,129.217 421.239,142.403 Z M 398.703,116.03 395.164,136.561 409.971,129.217 Z M 383.017,154.414 375.599,132.693 361.427,153.521 Z M 402.963,172.266 399.064,154.414 384.243,172.266 Z M 395.164,136.561 375.599,132.693 383.017,154.414 Z M 421.239,142.403 395.164,136.561 399.064,154.414 Z M 421.684,172.266 429.224,154.846 412.101,157.335 Z M 430.377,127.472 419.109,114.285 409.971,129.217 Z M 398.703,116.03 380.567,118.708 395.164,136.561 Z M 419.109,114.285 398.703,116.03 409.971,129.217 Z M 439.515,112.541 419.109,114.285 430.377,127.472 Z M 438.331,96.9197 437.148,81.2985 424.964,101.207 Z M 439.515,112.541 438.331,96.9197 424.964,101.207 Z M 439.515,112.541 458.087,102.587 438.331,96.9197 Z M 380.567,118.708 353.239,116.03 360.226,133.734 Z M 395.164,136.561 380.567,118.708 375.599,132.693 Z M 387.365,100.855 366.955,93.1192 373.761,105.914 Z M 306.867,92.2861 306.244,72.291 288.888,78.5395 Z M 331.333,101.45 324.346,83.7465 306.867,92.2861 Z M 353.239,116.03 349.144,97.2848 335.2,119.154 Z M 345.05,78.5395 324.346,83.7465 331.333,101.45 Z M 345.05,78.5395 323.599,66.0426 324.346,83.7465 Z M 323.713,152.271 328.081,172.266 345.827,153.521 Z M 344.853,134.776 326.587,136.858 345.827,153.521 Z M 301.171,134.776 286.818,154.771 305.266,153.521 Z M 358.311,53.5457 375.667,47.2972 354.743,28.5519 Z M 345.05,78.5395 359.513,73.3324 340.955,59.7941 Z M 340.955,59.7941 359.513,73.3324 358.311,53.5457 Z M 556.368,274.656 554.483,292.017 571.448,281.752 Z M 571.448,245.257 558.076,250.471 571.448,263.505 Z M 534.651,244.871 546.487,233.092 531.333,224.402 Z M 503.675,251.731 520.968,254.225 513.749,230.528 Z M 537.969,265.339 556.368,274.656 558.076,250.471 Z M 571.448,227.009 546.487,233.092 571.448,245.257 Z M 491.217,185.3 509.046,184.431 496.566,172.266 Z M 469.421,210.586 487.005,204.46 473.633,191.426 Z M 521.527,202.679 509.046,184.431 504.589,198.334 Z M 537.751,201.463 521.527,202.679 531.333,224.402 Z M 537.751,201.463 529.327,185.952 521.527,202.679 Z M 558.076,250.471 546.487,233.092 534.651,244.871 Z M 571.448,263.505 558.076,250.471 556.368,274.656 Z M 571.448,245.257 546.487,233.092 558.076,250.471 Z M 503.586,377.553 486.621,387.817 503.586,395.8 Z M 514.896,364.627 503.586,377.553 517.158,383.939 Z M 486.621,369.569 486.621,387.817 503.586,377.553 Z M 514.896,364.627 498.739,357.024 503.586,377.553 Z M 530.731,372.078 514.896,364.627 517.158,383.939 Z M 533.276,391.524 530.731,372.078 517.158,383.939 Z M 546,379.263 537.517,357.024 530.731,372.078 Z M 520.552,349.041 503.586,341.057 498.739,357.024 Z M 482.379,349.326 467.534,360.588 486.621,369.569 Z M 426.492,401.791 423.082,378.172 410.441,392.477 Z M 557.31,329.843 542.364,322.81 543.172,341.437 Z M 571.448,300 554.483,292.017 556.906,311.405 Z M 512.069,326.801 503.586,341.057 520.552,349.041 Z M 526.914,315.539 512.069,326.801 527.823,334.214 Z M 511.126,308.11 496.046,319.261 512.069,326.801 Z M 571.448,318.248 584.541,327.924 585.724,300 Z M 585.724,300 599.408,318.837 600,300 Z M 599.408,281.163 585.724,300 600,300 Z M 571.448,300 571.448,318.248 585.724,300 Z M 506.123,106.942 518.691,94.6359 505.364,81.3094 Z M 484.915,155.935 496.566,172.266 504.107,154.846 Z M 532.253,133.071 542.705,123.664 519.188,120.006 Z M 410.378,34.8003 429.228,45.7825 427.734,28.5519 Z M 394.442,59.7941 393.022,41.0488 375.667,47.2972 Z M 395.863,78.5395 394.442,59.7941 379.566,65.1499 Z M 413.268,71.2812 437.148,81.2985 430.673,64.0229 Z M 429.228,45.7825 411.835,52.7883 430.673,64.0229 Z M 424.964,101.207 419.109,114.285 439.515,112.541 Z M 410.413,89.8732 424.964,101.207 437.148,81.2985 Z M 410.413,89.8732 404.558,102.952 424.964,101.207 Z M 395.863,78.5395 410.413,89.8732 413.268,71.2812 Z M 395.863,78.5395 387.365,100.855 404.558,102.952 Z M 410.437,21.0671 410.378,34.8003 427.734,28.5519 Z M 410.437,21.0671 393.022,41.0488 410.378,34.8003 Z M 359.513,73.3324 379.566,65.1499 358.311,53.5457 Z M 349.144,97.2848 353.239,116.03 366.955,93.1192 Z M 366.955,93.1192 378.117,83.0027 359.513,73.3324 Z M 444.825,154.846 440.404,172.266 459.125,172.266 Z M 435.242,139.915 444.825,154.846 449.246,137.426 Z M 429.224,154.846 440.404,172.266 444.825,154.846 Z M 412.101,157.335 429.224,154.846 421.239,142.403 Z M 421.684,172.266 440.404,172.266 429.224,154.846 Z M 448.078,56.7646 466.929,67.7467 460.748,46.7016 Z M 430.673,64.0229 437.148,81.2985 448.078,56.7646 Z M 411.835,52.7883 413.268,71.2812 430.673,64.0229 Z M 410.378,34.8003 411.835,52.7883 429.228,45.7825 Z M 410.378,34.8003 393.022,41.0488 411.835,52.7883 Z M 394.442,59.7941 395.863,78.5395 413.268,71.2812 Z M 457.791,82.6781 466.929,67.7467 448.078,56.7646 Z M 429.228,45.7825 430.673,64.0229 448.078,56.7646 Z M 458.087,102.587 472.076,99.1026 457.791,82.6781 Z M 429.228,45.7825 448.078,56.7646 444.526,37.108 Z M 472.076,99.1026 489.255,113.474 493.058,93.8766 Z M 479.994,80.8116 472.076,99.1026 493.058,93.8766 Z M 503.734,123.273 479.485,125.232 501.345,139.604 Z M 476.336,57.2949 460.748,46.7016 466.929,67.7467 Z M 466.929,67.7467 479.994,80.8116 476.336,57.2949 Z M 410.437,21.0671 392.705,14.683 393.022,41.0488 Z M 429.228,45.7825 444.526,37.108 427.734,28.5519 Z M 393.022,41.0488 394.442,59.7941 411.835,52.7883 Z M 457.791,82.6781 438.331,96.9197 458.087,102.587 Z M 448.078,56.7646 437.148,81.2985 457.791,82.6781 Z M 404.558,102.952 387.365,100.855 398.703,116.03 Z M 419.109,114.285 404.558,102.952 398.703,116.03 Z M 410.413,89.8732 395.863,78.5395 404.558,102.952 Z M 519.188,120.006 542.705,123.664 531.154,108.773 Z M 518.691,94.6359 506.123,106.942 531.154,108.773 Z M 552.728,172.266 558.968,196.596 571.448,172.266 Z M 372.991,28.5519 375.667,47.2972 393.022,41.0488 Z M 356.214,5.31382 354.743,28.5519 374.607,9.42505 Z M 346.355,16.9329 337.6,2.36559 327.924,15.4588 Z M 374.607,9.42505 372.991,28.5519 392.705,14.683 Z M 354.743,28.5519 372.991,28.5519 374.607,9.42505 Z M 303.122,50.4215 323.599,66.0426 329.601,44.173 Z M 375.667,47.2972 372.991,28.5519 354.743,28.5519 Z M 309.419,14.5719 318.248,28.5519 327.924,15.4588 Z M 314.979,112.281 335.2,119.154 331.333,101.45 Z M 297.077,116.03 314.979,112.281 306.867,92.2861 Z M 279.175,119.779 297.077,116.03 289.238,97.2848 Z M 279.175,119.779 282.997,137.275 297.077,116.03 Z M 301.171,134.776 326.587,136.858 314.979,112.281 Z M 282.997,137.275 286.818,154.771 301.171,134.776 Z M 263.048,131.651 282.997,137.275 279.175,119.779 Z M 263.048,131.651 271.842,154.771 282.997,137.275 Z M 309.36,172.266 328.081,172.266 323.713,152.271 Z M 329.601,44.173 318.248,28.5519 303.122,50.4215 Z M 340.955,59.7941 329.601,44.173 323.599,66.0426 Z M 336.495,28.5519 346.355,16.9329 327.924,15.4588 Z M 329.601,44.173 336.495,28.5519 318.248,28.5519 Z M 300,28.5519 303.122,50.4215 318.248,28.5519 Z M 340.955,59.7941 347.403,41.0488 329.601,44.173 Z M 346.355,16.9329 356.214,5.31382 337.6,2.36559 Z M 354.743,28.5519 346.355,16.9329 336.495,28.5519 Z M 354.743,28.5519 356.214,5.31382 346.355,16.9329 Z M 289.916,43.1316 281.752,28.5519 271.966,45.2144 Z M 280.427,61.8769 289.916,43.1316 271.966,45.2144 Z M 303.122,50.4215 300,28.5519 289.916,43.1316 Z M 309.419,14.5719 300,28.5519 318.248,28.5519 Z M 300,0 309.419,14.5719 318.837,0.591981 Z M 300,0 290.581,14.5719 309.419,14.5719 Z M 290.581,14.5719 281.163,0.591981 272.076,15.4587 Z M 309.419,14.5719 290.581,14.5719 300,28.5519 Z M 300,0 281.163,0.591981 290.581,14.5719 Z M 343.149,358.547 323.285,353.225 336.495,377.557 Z M 401.208,265.405 421.099,260.083 405.303,246.778 Z M 373.842,314.193 388.923,321.289 393.018,302.661 Z M 356.682,307.096 373.842,314.193 379.822,296.452 Z M 356.682,307.096 350.897,323.95 373.842,314.193 Z M 413.376,295.21 434.905,282.437 417.238,277.647 Z M 450.805,352.716 452.69,371.85 467.534,360.588 Z M 434.229,190.894 440.404,172.266 421.684,172.266 Z M 309.479,367.863 318.436,385.161 336.495,377.557 Z M 413.376,295.21 430.868,300.798 434.905,282.437 Z M 393.018,302.661 413.376,295.21 403.353,284.033 Z M 409.515,312.773 405.654,330.337 430.576,319.16 Z M 430.868,300.798 409.515,312.773 430.576,319.16 Z M 413.376,295.21 393.018,302.661 409.515,312.773 Z M 418.759,355.884 422.795,337.522 401.793,347.9 Z M 418.759,355.884 435.724,363.867 439.936,344.707 Z M 409.515,312.773 393.018,302.661 388.923,321.289 Z M 402.963,172.266 417.589,190.894 421.684,172.266 Z M 384.243,172.266 399.063,190.007 402.963,172.266 Z M 391.393,205.974 413.493,209.522 399.063,190.007 Z M 457.791,82.6781 479.994,80.8116 466.929,67.7467 Z M 465.912,156.588 449.246,137.426 444.825,154.846 Z M 459.125,172.266 465.912,156.588 444.825,154.846 Z M 448.078,56.7646 460.748,46.7016 444.526,37.108 Z M 399.063,190.007 384.243,172.266 380.074,191.227 Z M 387.365,100.855 395.863,78.5395 378.117,83.0027 Z M 373.761,105.914 380.567,118.708 387.365,100.855 Z M 353.239,116.03 373.761,105.914 366.955,93.1192 Z M 353.239,116.03 380.567,118.708 373.761,105.914 Z M 404.558,102.952 419.109,114.285 424.964,101.207 Z M 435.242,139.915 449.246,137.426 430.377,127.472 Z M 429.224,154.846 435.242,139.915 421.239,142.403 Z M 429.224,154.846 444.825,154.846 435.242,139.915 Z M 410.413,89.8732 437.148,81.2985 413.268,71.2812 Z M 449.246,137.426 453.666,120.006 430.377,127.472 Z M 438.331,96.9197 457.791,82.6781 437.148,81.2985 Z M 366.749,232.918 353.675,226.154 341.244,240.125 Z M 379.822,239.681 366.749,232.918 367.57,248.108 Z M 379.822,239.681 385.608,222.828 366.749,232.918 Z M 425.662,226.553 441.925,224.956 432.682,207.393 Z M 424.96,242.52 425.662,226.553 409.398,228.15 Z M 424.96,242.52 441.925,224.956 425.662,226.553 Z M 384.243,172.266 365.522,172.266 380.074,191.227 Z M 379.566,65.1499 394.442,59.7941 375.667,47.2972 Z M 272.056,307.985 285.629,314.371 283.034,292.017 Z M 266.069,284.033 272.056,307.985 283.034,292.017 Z M 266.189,355.711 254.035,372.3 275.492,368.307 Z M 285.86,353.226 266.189,355.711 275.492,368.307 Z M 256.886,343.114 242.514,357.486 266.189,355.711 Z M 276.58,334.065 261.078,323.953 256.886,343.114 Z M 266.189,355.711 276.58,334.065 256.886,343.114 Z M 291.793,333.71 285.629,314.371 276.58,334.065 Z M 242.116,331.937 228.476,345.244 242.514,357.486 Z M 324.069,190.514 340.115,190.514 328.081,172.266 Z M 340.115,190.514 359.452,189.231 346.801,172.266 Z M 361.427,153.521 375.599,132.693 360.226,133.734 Z M 306.597,323.064 322.953,331.935 316.966,307.983 Z M 283.034,292.017 285.629,314.371 300,300 Z M 307.539,343.468 323.285,353.225 322.953,331.935 Z M 291.793,333.71 307.539,343.468 306.597,323.064 Z M 285.86,353.226 309.479,367.863 307.539,343.468 Z M 346.509,280.042 345.778,262.079 325.49,269.207 Z M 337.88,298.004 346.509,280.042 323.035,291.019 Z M 316.966,307.983 337.88,298.004 323.035,291.019 Z M 333.931,315.967 350.897,323.95 356.682,307.096 Z M 362.467,290.243 379.562,278.711 363.401,267.069 Z M 326.744,227.009 353.675,226.154 338.277,211.043 Z M 345.778,262.079 341.244,240.125 329.752,249.819 Z M 345.778,262.079 367.57,248.108 341.244,240.125 Z M 327.924,15.4588 337.6,2.36559 318.837,0.591981 Z M 309.419,14.5719 327.924,15.4588 318.837,0.591981 Z M 318.248,28.5519 336.495,28.5519 327.924,15.4588 Z M 281.752,28.5519 300,28.5519 290.581,14.5719 Z M 243.786,5.31382 253.645,16.9329 262.4,2.36559 Z M 303.122,50.4215 306.244,72.291 323.599,66.0426 Z M 281.752,28.5519 289.916,43.1316 300,28.5519 Z M 289.916,43.1316 280.427,61.8769 303.122,50.4215 Z M 208.762,28.5519 227.009,28.5519 207.295,14.683 Z M 225.393,9.42505 207.295,14.683 227.009,28.5519 Z M 164.801,51.6427 178.235,44.7979 155.474,37.108 Z M 139.252,46.7016 164.801,51.6427 155.474,37.108 Z M 174.128,66.1775 178.235,44.7979 164.801,51.6427 Z M 171.833,103.959 183.455,80.7122 164.724,80.2649 Z M 167.398,122.279 171.833,103.959 155.956,104.101 Z M 184.753,116.03 202.109,109.782 196.141,93.5358 Z M 216.789,84.7879 219.465,103.533 236.821,97.2848 Z M 229.462,45.7351 214.113,66.0426 231.915,62.9184 Z M 196.141,93.5358 219.465,103.533 216.789,84.7879 Z M 214.113,66.0426 194.121,66.11 216.789,84.7879 Z M 164.724,80.2649 183.455,80.7122 174.128,66.1775 Z M 164.801,51.6427 155.396,65.7302 174.128,66.1775 Z M 145.992,79.8176 155.956,104.101 164.724,80.2649 Z M 171.833,103.959 196.141,93.5358 183.455,80.7122 Z M 202.109,109.782 219.465,103.533 196.141,93.5358 Z M 184.753,116.03 196.141,93.5358 171.833,103.959 Z M 193.498,36.6749 211.437,47.2972 208.762,28.5519 Z M 189.563,21.0671 193.498,36.6749 208.762,28.5519 Z M 193.809,51.3925 194.121,66.11 214.113,66.0426 Z M 178.235,44.7979 193.809,51.3925 193.498,36.6749 Z M 178.235,44.7979 174.128,66.1775 193.809,51.3925 Z M 155.474,37.108 178.235,44.7979 172.266,28.5519 Z M 174.128,66.1775 194.121,66.11 193.809,51.3925 Z M 229.462,45.7351 254.015,47.2972 245.257,28.5519 Z M 253.645,16.9329 263.505,28.5519 272.076,15.4587 Z M 245.257,28.5519 253.645,16.9329 243.786,5.31382 Z M 245.257,28.5519 263.505,28.5519 253.645,16.9329 Z M 227.009,28.5519 245.257,28.5519 225.393,9.42505 Z M 211.437,47.2972 227.009,28.5519 208.762,28.5519 Z M 193.498,36.6749 172.266,28.5519 178.235,44.7979 Z M 247.385,75.4153 254.176,91.0364 271.532,84.7879 Z M 254.015,47.2972 247.385,75.4153 262.774,66.0426 Z M 234.368,80.1016 254.176,91.0364 247.385,75.4153 Z M 262.774,66.0426 247.385,75.4153 271.532,84.7879 Z M 280.427,61.8769 271.532,84.7879 288.888,78.5395 Z M 254.015,47.2972 262.774,66.0426 271.966,45.2144 Z M 263.505,28.5519 254.015,47.2972 271.966,45.2144 Z M 245.257,28.5519 227.009,28.5519 229.462,45.7351 Z M 231.915,62.9184 234.368,80.1016 247.385,75.4153 Z M 281.752,28.5519 272.076,15.4587 263.505,28.5519 Z M 207.295,14.683 189.563,21.0671 208.762,28.5519 Z M 245.257,28.5519 243.786,5.31382 225.393,9.42505 Z M 272.076,15.4587 281.752,28.5519 290.581,14.5719 Z M 262.4,2.36559 272.076,15.4587 281.163,0.591981 Z M 262.4,2.36559 253.645,16.9329 272.076,15.4587 Z M 280.427,61.8769 262.774,66.0426 271.532,84.7879 Z M 306.244,72.291 280.427,61.8769 288.888,78.5395 Z M 271.966,45.2144 262.774,66.0426 280.427,61.8769 Z M 263.505,28.5519 271.966,45.2144 281.752,28.5519 Z M 263.505,28.5519 245.257,28.5519 254.015,47.2972 Z M 234.368,80.1016 236.821,97.2848 254.176,91.0364 Z M 214.113,66.0426 234.368,80.1016 231.915,62.9184 Z M 216.789,84.7879 236.821,97.2848 234.368,80.1016 Z M 235.064,153.521 211.208,151.438 215.757,172.266 Z M 249.104,153.521 235.064,153.521 234.478,172.266 Z M 245.01,134.776 263.048,131.651 253.932,111.344 Z M 218.538,120.717 217.611,137.9 236.235,116.03 Z M 249.104,153.521 263.048,131.651 245.01,134.776 Z M 193.809,51.3925 211.437,47.2972 193.498,36.6749 Z M 196.141,93.5358 216.789,84.7879 194.121,66.11 Z M 216.789,84.7879 234.368,80.1016 214.113,66.0426 Z M 229.462,45.7351 211.437,47.2972 214.113,66.0426 Z M 254.015,47.2972 229.462,45.7351 231.915,62.9184 Z M 227.009,28.5519 211.437,47.2972 229.462,45.7351 Z M 193.498,36.6749 189.563,21.0671 172.266,28.5519 Z M 202.109,109.782 200.418,130.61 218.538,120.717 Z M 193.809,51.3925 214.113,66.0426 211.437,47.2972 Z M 183.455,80.7122 194.121,66.11 174.128,66.1775 Z M 183.455,80.7122 196.141,93.5358 194.121,66.11 Z M 195.835,152.479 180.462,153.521 197.037,172.266 Z M 200.418,130.61 195.835,152.479 211.208,151.438 Z M 200.418,130.61 182.608,134.776 195.835,152.479 Z M 145.459,150.397 164.797,138.941 150.042,128.527 Z M 140.875,172.266 145.459,150.397 127.42,153.521 Z M 140.875,172.266 159.596,172.266 145.459,150.397 Z M 135.804,94.634 135.675,116.977 155.956,104.101 Z M 106.813,116.22 121.308,105.427 106.942,93.8766 Z M 106.813,116.22 119.75,125.498 121.308,105.427 Z M 184.753,116.03 171.833,103.959 167.398,122.279 Z M 135.804,94.634 120.006,80.8116 121.308,105.427 Z M 167.398,122.279 155.956,104.101 150.042,128.527 Z M 123.664,57.2949 133.071,67.7467 139.252,46.7016 Z M 123.664,57.2949 108.773,68.846 120.006,80.8116 Z M 305.266,153.521 286.818,154.771 290.64,172.266 Z M 323.713,152.271 305.266,153.521 309.36,172.266 Z M 323.713,152.271 326.587,136.858 305.266,153.521 Z M 254.176,91.0364 253.932,111.344 275.354,102.284 Z M 305.266,153.521 290.64,172.266 309.36,172.266 Z M 297.077,116.03 282.997,137.275 301.171,134.776 Z M 271.919,172.266 290.64,172.266 286.818,154.771 Z M 271.842,154.771 271.919,172.266 286.818,154.771 Z M 282.997,137.275 271.842,154.771 286.818,154.771 Z M 249.104,153.521 253.199,172.266 271.842,154.771 Z M 227.224,188.233 248.986,191.426 234.478,172.266 Z M 197.037,172.266 188.847,188.233 211.37,192.225 Z M 250.742,226.021 230.383,224.956 234.576,238.528 Z M 248.986,191.426 244.774,210.586 264.314,206.861 Z M 226.756,207.393 230.383,224.956 244.774,210.586 Z M 211.37,192.225 226.756,207.393 227.224,188.233 Z M 206.982,212.183 230.383,224.956 226.756,207.393 Z M 219.034,242.52 230.383,224.956 205.461,236.133 Z M 198.207,252.1 219.034,242.52 205.461,236.133 Z M 234.576,238.528 230.383,224.956 219.034,242.52 Z M 238.768,252.1 234.576,238.528 219.034,242.52 Z M 238.768,252.1 256.709,241.455 234.576,238.528 Z M 256.709,241.455 252.906,258.753 270.164,265.405 Z M 264.314,206.861 250.742,226.021 269.872,224.158 Z M 238.768,252.1 252.906,258.753 256.709,241.455 Z M 263.048,131.651 249.104,153.521 271.842,154.771 Z M 253.932,111.344 263.048,131.651 279.175,119.779 Z M 253.932,111.344 236.235,116.03 245.01,134.776 Z M 275.354,102.284 253.932,111.344 279.175,119.779 Z M 289.238,97.2848 275.354,102.284 279.175,119.779 Z M 271.532,84.7879 254.176,91.0364 275.354,102.284 Z M 236.235,116.03 219.465,103.533 218.538,120.717 Z M 227.224,188.233 234.478,172.266 215.757,172.266 Z M 217.611,137.9 200.418,130.61 211.208,151.438 Z M 249.104,153.521 245.01,134.776 235.064,153.521 Z M 219.465,103.533 202.109,109.782 218.538,120.717 Z M 219.034,242.52 198.207,252.1 215.172,260.083 Z M 211.37,192.225 215.757,172.266 197.037,172.266 Z M 188.847,188.233 197.037,172.266 178.316,172.266 Z M 159.596,172.266 173.636,193.555 178.316,172.266 Z M 189.139,208.191 206.982,212.183 211.37,192.225 Z M 230.383,224.956 206.982,212.183 205.461,236.133 Z M 226.756,207.393 248.986,191.426 227.224,188.233 Z M 173.636,193.555 155.501,190.894 151.406,209.522 Z M 189.139,208.191 173.636,193.555 168.956,214.844 Z M 188.847,188.233 178.316,172.266 173.636,193.555 Z M 232.138,268.067 249.103,276.05 252.906,258.753 Z M 238.768,252.1 232.138,268.067 252.906,258.753 Z M 215.172,260.083 201.782,271.394 221.16,284.035 Z M 79.4484,196.216 65.1155,176.258 55.164,198.878 Z M 37.108,155.474 63.2634,159.769 46.7016,139.252 Z M 121.308,105.427 120.006,80.8116 106.942,93.8766 Z M 123.664,57.2949 120.006,80.8116 133.071,67.7467 Z M 94.6359,81.3094 81.3094,94.6359 106.942,93.8766 Z M 93.8766,106.942 81.3094,94.6359 68.846,108.773 Z M 135.804,94.634 155.956,104.101 145.992,79.8176 Z M 120.006,80.8116 135.804,94.634 145.992,79.8176 Z M 121.308,105.427 135.675,116.977 135.804,94.634 Z M 132.686,134.776 135.675,116.977 119.75,125.498 Z M 150.042,128.527 155.956,104.101 135.675,116.977 Z M 120.006,80.8116 108.773,68.846 106.942,93.8766 Z M 67.7467,133.071 80.8116,120.006 57.2949,123.664 Z M 117.767,192.225 91.4413,184.241 96.4139,204.2 Z M 91.4413,184.241 84.7136,172.266 79.4484,196.216 Z M 96.4139,204.2 91.4413,184.241 79.4484,196.216 Z M 103.434,172.266 84.7136,172.266 91.4413,184.241 Z M 127.42,153.521 109.382,156.645 122.155,172.266 Z M 97.9748,147.272 84.7136,172.266 103.434,172.266 Z M 80.6191,153.521 63.2634,159.769 84.7136,172.266 Z M 34.8003,189.622 41.0488,206.978 55.164,198.878 Z M 28.5519,172.266 34.8003,189.622 45.5174,180.25 Z M 21.0671,189.563 41.0488,206.978 34.8003,189.622 Z M 68.4701,212.184 81.7761,225.49 96.4139,204.2 Z M 80.8116,120.006 68.846,108.773 57.2949,123.664 Z M 82.8608,140.172 98.0711,130.515 80.8116,120.006 Z M 80.6191,153.521 82.8608,140.172 67.7467,133.071 Z M 80.6191,153.521 97.9748,147.272 82.8608,140.172 Z M 93.8766,106.942 68.846,108.773 80.8116,120.006 Z M 98.0711,130.515 93.8766,106.942 80.8116,120.006 Z M 67.7467,133.071 82.8608,140.172 80.8116,120.006 Z M 115.331,141.024 132.686,134.776 119.75,125.498 Z M 109.382,156.645 127.42,153.521 115.331,141.024 Z M 103.434,172.266 109.382,156.645 97.9748,147.272 Z M 103.434,172.266 122.155,172.266 109.382,156.645 Z M 106.813,116.22 106.942,93.8766 93.8766,106.942 Z M 98.0711,130.515 106.813,116.22 93.8766,106.942 Z M 119.75,125.498 135.675,116.977 121.308,105.427 Z M 115.331,141.024 119.75,125.498 98.0711,130.515 Z M 132.686,134.776 150.042,128.527 135.675,116.977 Z M 106.942,93.8766 81.3094,94.6359 93.8766,106.942 Z M 57.2949,123.664 46.7016,139.252 67.7467,133.071 Z M 34.8003,189.622 28.5519,172.266 21.0671,189.563 Z M 82.8608,140.172 97.9748,147.272 98.0711,130.515 Z M 127.42,153.521 122.155,172.266 140.875,172.266 Z M 115.331,141.024 127.42,153.521 132.686,134.776 Z M 115.331,141.024 97.9748,147.272 109.382,156.645 Z M 119.75,125.498 106.813,116.22 98.0711,130.515 Z M 80.6191,153.521 84.7136,172.266 97.9748,147.272 Z M 63.2634,159.769 80.6191,153.521 67.7467,133.071 Z M 79.4484,196.216 55.164,198.878 68.4701,212.184 Z M 117.767,192.225 103.434,172.266 91.4413,184.241 Z M 113.379,212.183 117.767,192.225 96.4139,204.2 Z M 131.71,185.572 122.155,172.266 117.767,192.225 Z M 84.7136,172.266 65.1155,176.258 79.4484,196.216 Z M 46.7016,139.252 63.2634,159.769 67.7467,133.071 Z M 45.9076,166.018 45.5174,180.25 65.1155,176.258 Z M 211.208,151.438 197.037,172.266 215.757,172.266 Z M 162.196,155.604 178.316,172.266 180.462,153.521 Z M 168.956,214.844 147.31,228.15 164.276,236.133 Z M 159.596,172.266 155.501,190.894 173.636,193.555 Z M 159.596,172.266 140.875,172.266 155.501,190.894 Z M 131.71,185.572 133.855,204.2 155.501,190.894 Z M 122.155,172.266 131.71,185.572 140.875,172.266 Z M 122.155,172.266 103.434,172.266 117.767,192.225 Z M 189.87,226.154 189.139,208.191 168.956,214.844 Z M 205.461,236.133 189.87,226.154 181.241,244.116 Z M 205.461,236.133 206.982,212.183 189.87,226.154 Z M 151.406,209.522 147.31,228.15 168.956,214.844 Z M 127.849,240.126 108.388,252.103 121.694,265.409 Z M 130.345,220.166 127.849,240.126 147.31,228.15 Z M 130.345,220.166 104.231,225.49 127.849,240.126 Z M 37.108,155.474 28.5519,172.266 45.9076,166.018 Z M 63.2634,159.769 37.108,155.474 45.9076,166.018 Z M 106.942,93.8766 108.773,68.846 94.6359,81.3094 Z M 155.396,65.7302 145.992,79.8176 164.724,80.2649 Z M 139.252,46.7016 155.396,65.7302 164.801,51.6427 Z M 133.071,67.7467 145.992,79.8176 155.396,65.7302 Z M 326.587,136.858 323.713,152.271 345.827,153.521 Z M 314.979,112.281 326.587,136.858 335.2,119.154 Z M 301.171,134.776 305.266,153.521 326.587,136.858 Z M 282.449,209.522 287.715,228.15 301.839,206.481 Z M 302.145,190.894 283.717,189.563 301.839,206.481 Z M 264.314,206.861 269.872,224.158 282.449,209.522 Z M 268.117,189.563 264.314,206.861 282.449,209.522 Z M 301.839,206.481 283.717,189.563 282.449,209.522 Z M 271.919,172.266 253.199,172.266 268.117,189.563 Z M 289.47,274.909 270.164,265.405 266.069,284.033 Z M 304.012,281.752 289.47,274.909 283.034,292.017 Z M 295.905,257.802 270.164,265.405 289.47,274.909 Z M 289.238,97.2848 271.532,84.7879 275.354,102.284 Z M 411.835,52.7883 394.442,59.7941 413.268,71.2812 Z M 358.311,53.5457 379.566,65.1499 375.667,47.2972 Z M 344.853,134.776 335.2,119.154 326.587,136.858 Z M 361.427,153.521 360.226,133.734 345.827,153.521 Z M 353.239,116.03 335.2,119.154 344.853,134.776 Z M 380.567,118.708 398.703,116.03 387.365,100.855 Z M 360.226,133.734 375.599,132.693 380.567,118.708 Z M 344.853,134.776 360.226,133.734 353.239,116.03 Z M 344.853,134.776 345.827,153.521 360.226,133.734 Z M 346.801,172.266 361.427,153.521 345.827,153.521 Z M 365.522,172.266 384.243,172.266 383.017,154.414 Z M 399.064,154.414 402.963,172.266 412.101,157.335 Z M 349.144,97.2848 345.05,78.5395 331.333,101.45 Z M 335.2,119.154 349.144,97.2848 331.333,101.45 Z M 366.955,93.1192 345.05,78.5395 349.144,97.2848 Z M 378.117,83.0027 366.955,93.1192 387.365,100.855 Z M 379.566,65.1499 378.117,83.0027 395.863,78.5395 Z M 379.566,65.1499 359.513,73.3324 378.117,83.0027 Z M 359.513,73.3324 345.05,78.5395 366.955,93.1192 Z M 393.022,41.0488 392.705,14.683 372.991,28.5519 Z M 523.77,152.669 543.653,155.759 532.253,133.071 Z M 571.448,391.238 554.483,401.503 578.933,410.437 Z M 585.317,392.705 571.448,372.991 571.448,391.238 Z M 512.947,446.316 504.601,434.704 489.84,446.97 Z M 505.616,473.607 516.068,463.155 499.622,457.978 Z M 528.353,445.88 547.073,435.476 524.452,424.832 Z M 516.068,463.155 528.353,445.88 512.947,446.316 Z M 540.826,453.314 553.298,460.748 562.892,444.526 Z M 532.253,466.929 540.826,453.314 528.353,445.88 Z M 532.253,466.929 553.298,460.748 540.826,453.314 Z M 486.621,369.569 498.739,357.024 482.379,349.326 Z M 530.731,372.078 537.517,357.024 514.896,364.627 Z M 537.517,357.024 546,379.263 558.724,367.003 Z M 516.068,463.155 512.947,446.316 499.622,457.978 Z M 519.188,479.994 516.068,463.155 505.616,473.607 Z M 532.253,466.929 528.353,445.88 516.068,463.155 Z M 520.552,403.784 506.707,412.639 524.452,424.832 Z M 459.083,395.21 469.655,379.834 452.69,371.85 Z M 482.379,349.326 469.655,343.338 467.534,360.588 Z M 486.621,387.817 486.621,369.569 469.655,379.834 Z M 503.586,341.057 480.965,330.413 482.379,349.326 Z M 542.364,322.81 541.758,304.277 526.914,315.539 Z M 541.758,304.277 554.483,292.017 541.287,285.807 Z M 526.914,315.539 541.758,304.277 526.207,296.959 Z M 556.906,311.405 554.483,292.017 541.758,304.277 Z M 542.364,322.81 557.31,329.843 556.906,311.405 Z M 527.823,334.214 542.364,322.81 526.914,315.539 Z M 527.823,334.214 543.172,341.437 542.364,322.81 Z M 571.448,318.248 571.448,300 556.906,311.405 Z M 571.448,281.752 571.448,263.505 556.368,274.656 Z M 439.936,344.707 444.148,325.547 422.795,337.522 Z M 418.759,355.884 439.936,344.707 422.795,337.522 Z M 450.805,352.716 456.902,334.443 439.936,344.707 Z M 452.69,371.85 450.805,352.716 435.724,363.867 Z M 469.655,343.338 456.902,334.443 450.805,352.716 Z M 448.36,306.387 452.573,287.227 430.868,300.798 Z M 480.965,330.413 480.151,314.97 464.663,318.4 Z M 491.608,301.149 496.046,319.261 511.126,308.11 Z M 448.36,306.387 464.663,318.4 467.064,297.905 Z M 480.965,330.413 496.046,319.261 480.151,314.97 Z M 503.675,251.731 477.299,260.92 493.602,272.933 Z M 481.74,228.41 478.581,242.78 498.271,227.074 Z M 487.005,204.46 481.74,228.41 498.271,227.074 Z M 465.209,229.746 478.581,242.78 481.74,228.41 Z M 465.209,229.746 460.997,248.906 478.581,242.78 Z M 526.914,315.539 526.207,296.959 511.126,308.11 Z M 513.749,230.528 534.651,244.871 531.333,224.402 Z M 367.57,248.108 383.462,260.97 379.822,239.681 Z M 417.238,277.647 421.099,260.083 401.208,265.405 Z M 413.376,295.21 417.238,277.647 403.353,284.033 Z M 434.905,282.437 421.099,260.083 417.238,277.647 Z M 452.573,287.227 434.905,282.437 430.868,300.798 Z M 448.302,264.075 421.099,260.083 434.905,282.437 Z M 472.181,279.412 493.602,272.933 477.299,260.92 Z M 462.801,262.497 472.181,279.412 477.299,260.92 Z M 460.997,248.906 462.801,262.497 477.299,260.92 Z M 448.302,264.075 452.573,287.227 462.801,262.497 Z M 467.064,297.905 491.608,301.149 492.605,287.041 Z M 442.978,245.713 421.099,260.083 448.302,264.075 Z M 537.969,265.339 527.488,278.82 541.287,285.807 Z M 478.581,242.78 477.299,260.92 503.675,251.731 Z M 448.302,264.075 462.801,262.497 460.997,248.906 Z M 462.801,262.497 452.573,287.227 472.181,279.412 Z M 467.064,297.905 480.151,314.97 491.608,301.149 Z M 424.96,242.52 405.303,246.778 421.099,260.083 Z M 441.925,224.956 424.96,242.52 442.978,245.713 Z M 425.662,226.553 432.682,207.393 413.493,209.522 Z M 442.978,245.713 424.96,242.52 421.099,260.083 Z M 363.401,267.069 367.57,248.108 345.778,262.079 Z M 346.509,280.042 363.401,267.069 345.778,262.079 Z M 379.562,278.711 383.462,260.97 363.401,267.069 Z M 379.822,296.452 379.562,278.711 362.467,290.243 Z M 356.682,307.096 379.822,296.452 362.467,290.243 Z M 393.018,302.661 403.353,284.033 379.822,296.452 Z M 383.462,260.97 405.303,246.778 379.822,239.681 Z M 403.353,284.033 401.208,265.405 379.562,278.711 Z M 403.353,284.033 417.238,277.647 401.208,265.405 Z M 452.573,287.227 448.302,264.075 434.905,282.437 Z M 432.682,207.393 451.052,208.99 434.229,190.894 Z M 409.515,312.773 430.868,300.798 413.376,295.21 Z M 444.148,325.547 430.576,319.16 422.795,337.522 Z M 444.148,325.547 448.36,306.387 430.576,319.16 Z M 435.724,363.867 450.805,352.716 439.936,344.707 Z M 456.902,334.443 480.965,330.413 464.663,318.4 Z M 467.534,360.588 469.655,343.338 450.805,352.716 Z M 469.655,379.834 467.534,360.588 452.69,371.85 Z M 469.655,379.834 486.621,369.569 467.534,360.588 Z M 503.586,341.057 512.069,326.801 496.046,319.261 Z M 399.063,190.007 417.589,190.894 402.963,172.266 Z M 417.589,190.894 434.229,190.894 421.684,172.266 Z M 413.493,209.522 417.589,190.894 399.063,190.007 Z M 413.493,209.522 432.682,207.393 417.589,190.894 Z M 400.396,217.062 413.493,209.522 391.393,205.974 Z M 400.396,217.062 409.398,228.15 413.493,209.522 Z M 385.608,222.828 400.396,217.062 391.393,205.974 Z M 385.608,222.828 395.455,234.803 400.396,217.062 Z M 375.906,210.187 385.608,222.828 391.393,205.974 Z M 380.074,191.227 375.906,210.187 391.393,205.974 Z M 353.383,206.196 353.675,226.154 375.906,210.187 Z M 395.455,234.803 405.303,246.778 409.398,228.15 Z M 379.822,239.681 395.455,234.803 385.608,222.828 Z M 379.822,239.681 405.303,246.778 395.455,234.803 Z M 405.303,246.778 424.96,242.52 409.398,228.15 Z M 432.682,207.393 434.229,190.894 417.589,190.894 Z M 409.398,228.15 425.662,226.553 413.493,209.522 Z M 441.925,224.956 451.052,208.99 432.682,207.393 Z M 455.088,190.628 459.125,172.266 440.404,172.266 Z M 451.052,208.99 455.088,190.628 434.229,190.894 Z M 451.052,208.99 469.421,210.586 455.088,190.628 Z M 333.469,451.36 345.654,437.721 321.381,436.866 Z M 307.979,451.694 333.469,451.36 321.381,436.866 Z M 321.285,465 347.233,464.001 333.469,451.36 Z M 281.367,425.081 268.061,411.775 263.767,433.217 Z M 288.496,455.02 307.979,451.694 294.673,438.387 Z M 301.626,468.801 321.285,465 307.979,451.694 Z M 301.519,518.224 308.108,500.482 288.919,503.017 Z M 334.591,478.306 321.285,465 314.696,482.741 Z M 385.158,421.086 380.832,443.707 400.293,431.731 Z M 348.185,407.211 351.476,421.087 361.539,406.45 Z M 359.875,449.696 347.233,464.001 374.095,461.671 Z M 321.381,436.866 345.654,437.721 334.783,422.038 Z M 400.293,431.731 401.864,445.777 421.454,435.427 Z M 387.196,401.792 385.158,421.086 402.789,411.771 Z M 380.832,443.707 401.864,445.777 400.293,431.731 Z M 359.875,449.696 374.095,461.671 380.832,443.707 Z M 345.654,437.721 359.875,449.696 366.154,432.397 Z M 345.654,437.721 347.233,464.001 359.875,449.696 Z M 347.233,464.001 360.996,476.642 374.095,461.671 Z M 361.203,504.918 373.254,491.02 347.897,491.612 Z M 392.09,518.385 374.51,518.224 387.816,531.53 Z M 381.534,475.347 373.254,491.02 395.653,487.47 Z M 361.203,504.918 374.51,518.224 385.081,502.847 Z M 334.591,478.306 347.233,464.001 321.285,465 Z M 367.862,331.933 371.948,353.984 384.828,339.917 Z M 361.587,392.383 361.539,406.45 387.196,401.792 Z M 397.717,386.489 374.989,377.555 387.196,401.792 Z M 359.069,368.051 336.495,377.557 349.041,384.97 Z M 318.483,422.419 321.381,436.866 334.783,422.038 Z M 305.129,423.18 318.483,422.419 315.584,407.972 Z M 305.129,423.18 321.381,436.866 318.483,422.419 Z M 291.3,410.634 305.129,423.18 315.584,407.972 Z M 294.673,438.387 307.979,451.694 321.381,436.866 Z M 347.233,464.001 334.591,478.306 360.996,476.642 Z M 359.875,449.696 380.832,443.707 366.154,432.397 Z M 381.534,475.347 374.095,461.671 360.996,476.642 Z M 391.699,460.562 401.864,445.777 380.832,443.707 Z M 381.534,475.347 391.699,460.562 374.095,461.671 Z M 381.534,475.347 395.653,487.47 406.225,472.094 Z M 373.254,491.02 385.081,502.847 395.653,487.47 Z M 347.897,491.612 373.254,491.02 360.996,476.642 Z M 361.203,504.918 385.081,502.847 373.254,491.02 Z M 381.534,475.347 406.225,472.094 391.699,460.562 Z M 345.654,437.721 333.469,451.36 347.233,464.001 Z M 405.654,330.337 422.795,337.522 430.576,319.16 Z M 388.923,321.289 405.654,330.337 409.515,312.773 Z M 379.822,296.452 373.842,314.193 393.018,302.661 Z M 384.828,339.917 405.654,330.337 388.923,321.289 Z M 401.793,347.9 422.795,337.522 405.654,330.337 Z M 254.035,372.3 241.449,385.163 254.755,398.469 Z M 268.061,411.775 267.951,384.719 254.755,398.469 Z M 323.285,353.225 307.539,343.468 309.479,367.863 Z M 261.078,323.953 245.576,313.84 242.116,331.937 Z M 285.86,353.226 291.793,333.71 276.58,334.065 Z M 272.056,307.985 245.576,313.84 261.078,323.953 Z M 242.514,357.486 228.476,345.244 228.143,371.857 Z M 266.189,355.711 242.514,357.486 254.035,372.3 Z M 256.886,343.114 242.116,331.937 242.514,357.486 Z M 340.964,338.397 343.149,358.547 357.406,347.141 Z M 333.931,315.967 340.964,338.397 350.897,323.95 Z M 322.953,331.935 323.285,353.225 340.964,338.397 Z M 360.996,476.642 334.591,478.306 347.897,491.612 Z M 418.759,355.884 408.238,371.186 423.082,378.172 Z M 418.759,355.884 401.793,347.9 408.238,371.186 Z M 321.381,436.866 305.129,423.18 294.673,438.387 Z M 321.285,465 333.469,451.36 307.979,451.694 Z M 334.783,422.038 315.584,407.972 318.483,422.419 Z M 357.406,347.141 371.948,353.984 367.862,331.933 Z M 348.185,407.211 361.539,406.45 361.587,392.383 Z M 349.041,384.97 348.185,407.211 361.587,392.383 Z M 318.436,385.161 333.311,396.186 336.495,377.557 Z M 318.436,385.161 315.584,407.972 333.311,396.186 Z M 334.783,422.038 345.654,437.721 351.476,421.087 Z M 391.73,362.538 401.793,347.9 384.828,339.917 Z M 374.989,377.555 391.73,362.538 371.948,353.984 Z M 361.587,392.383 374.989,377.555 359.069,368.051 Z M 361.587,392.383 387.196,401.792 374.989,377.555 Z M 408.238,371.186 401.793,347.9 391.73,362.538 Z M 266.189,355.711 285.86,353.226 276.58,334.065 Z M 267.951,384.719 275.492,368.307 254.035,372.3 Z M 267.951,384.719 281.867,397.138 295.673,382.5 Z M 254.755,398.469 267.951,384.719 254.035,372.3 Z M 290.767,367.863 309.479,367.863 285.86,353.226 Z M 267.951,384.719 295.673,382.5 275.492,368.307 Z M 281.867,397.138 306.08,398.468 295.673,382.5 Z M 281.367,425.081 291.3,410.634 268.061,411.775 Z M 290.767,367.863 285.86,353.226 275.492,368.307 Z M 295.673,382.5 290.767,367.863 275.492,368.307 Z M 295.673,382.5 309.479,367.863 290.767,367.863 Z M 334.783,422.038 348.185,407.211 333.311,396.186 Z M 285.629,314.371 306.597,323.064 300,300 Z M 261.078,323.953 276.58,334.065 272.056,307.985 Z M 291.793,333.71 306.597,323.064 285.629,314.371 Z M 272.056,307.985 276.58,334.065 285.629,314.371 Z M 285.86,353.226 307.539,343.468 291.793,333.71 Z M 147.272,502.025 141.024,484.669 123.983,495.396 Z M 218.437,496.529 217.444,472.231 201.463,484.019 Z M 226.322,420.019 212.106,430.794 236.302,429.999 Z M 237.615,408.304 226.322,420.019 236.302,429.999 Z M 237.615,408.304 225.317,394.42 226.322,420.019 Z M 141.159,371.51 125.073,389.116 144.53,391.913 Z M 233.884,290.022 218.664,303.994 245.576,313.84 Z M 249.103,276.05 233.884,290.022 253.161,296.276 Z M 221.16,284.035 218.664,303.994 233.884,290.022 Z M 215.172,260.083 221.16,284.035 232.138,268.067 Z M 195.046,289.358 218.664,303.994 221.16,284.035 Z M 261.078,323.953 242.116,331.937 256.886,343.114 Z M 233.884,290.022 245.576,313.84 253.161,296.276 Z M 227.346,320.76 242.116,331.937 245.576,313.84 Z M 203.444,317.967 227.346,320.76 218.664,303.994 Z M 189.223,305.991 203.444,317.967 218.664,303.994 Z M 188.225,331.939 201.531,345.245 214.438,333.003 Z M 214.438,333.003 214.837,358.551 228.476,345.244 Z M 132.087,355.774 146.364,343.394 123.016,340.038 Z M 125.073,389.116 141.159,371.51 117.81,368.155 Z M 158.78,380.246 173.031,368.579 156.847,358.32 Z M 174.919,318.633 159.392,327.542 172.536,345.129 Z M 174.919,318.633 161.613,305.327 159.392,327.542 Z M 214.438,333.003 228.476,345.244 227.346,320.76 Z M 203.444,317.967 214.438,333.003 227.346,320.76 Z M 201.531,345.245 214.837,358.551 214.438,333.003 Z M 195.732,420.371 180.493,432.106 192.518,440.164 Z M 209.186,403.676 195.732,420.371 212.106,430.794 Z M 185.45,405.329 171.22,416.486 195.732,420.371 Z M 199.681,394.172 185.45,405.329 209.186,403.676 Z M 187.281,356.912 173.031,368.579 198.369,368 Z M 158.78,380.246 168.558,395.577 183.984,383.235 Z M 198.369,368 173.031,368.579 183.984,383.235 Z M 201.531,345.245 187.281,356.912 198.369,368 Z M 188.225,331.939 174.919,318.633 172.536,345.129 Z M 125.073,389.116 130.28,403.58 144.53,391.913 Z M 153.131,407.919 137.705,420.26 156.989,427.643 Z M 171.22,416.486 153.131,407.919 156.989,427.643 Z M 180.493,432.106 171.22,416.486 156.989,427.643 Z M 185.45,405.329 168.558,395.577 171.22,416.486 Z M 144.53,391.913 130.28,403.58 153.131,407.919 Z M 168.558,395.577 144.53,391.913 153.131,407.919 Z M 158.78,380.246 141.159,371.51 144.53,391.913 Z M 172.536,345.129 159.392,327.542 146.364,343.394 Z M 156.847,358.32 173.031,368.579 172.536,345.129 Z M 132.087,355.774 156.847,358.32 146.364,343.394 Z M 141.159,371.51 158.78,380.246 156.847,358.32 Z M 187.281,356.912 188.225,331.939 172.536,345.129 Z M 109.782,397.891 116.03,415.247 130.28,403.58 Z M 253.161,296.276 272.056,307.985 266.069,284.033 Z M 228.476,345.244 242.116,331.937 227.346,320.76 Z M 228.143,371.857 228.476,345.244 214.837,358.551 Z M 228.143,371.857 254.035,372.3 242.514,357.486 Z M 228.143,371.857 241.449,385.163 254.035,372.3 Z M 226.82,525.094 240.599,534.856 252.383,521.55 Z M 211.083,531.506 224.862,541.268 226.82,525.094 Z M 224.862,541.268 233.804,553.152 240.599,534.856 Z M 213.041,515.331 211.083,531.506 226.82,525.094 Z M 209.126,547.68 218.068,559.564 224.862,541.268 Z M 240.599,534.856 233.804,553.152 254.217,554.34 Z M 235.816,485.248 217.444,472.231 218.437,496.529 Z M 235.41,509.04 235.816,485.248 218.437,496.529 Z M 254.188,498.265 260.983,479.969 235.816,485.248 Z M 211.083,531.506 213.041,515.331 188.118,515.235 Z M 209.126,547.68 211.083,531.506 190.754,534.664 Z M 209.126,547.68 224.862,541.268 211.083,531.506 Z M 252.383,521.55 235.41,509.04 226.82,525.094 Z M 218.437,496.529 201.463,484.019 199.261,505.569 Z M 245.257,571.448 233.804,553.152 227.009,571.448 Z M 274.572,443.377 288.496,455.02 294.673,438.387 Z M 274.572,443.377 267.778,461.673 288.496,455.02 Z M 268.061,411.775 252.962,423.057 263.767,433.217 Z M 249.406,448.656 267.778,461.673 274.572,443.377 Z M 254.755,398.469 237.615,408.304 252.962,423.057 Z M 185.482,495.806 201.463,484.019 177.47,479.463 Z M 247.204,470.206 233.425,460.444 235.816,485.248 Z M 260.983,479.969 247.204,470.206 235.816,485.248 Z M 260.983,479.969 267.778,461.673 247.204,470.206 Z M 222.765,445.619 204.542,448.222 217.444,472.231 Z M 236.302,429.999 222.765,445.619 249.406,448.656 Z M 204.542,448.222 183.673,452.344 192.568,468.181 Z M 212.106,430.794 204.542,448.222 222.765,445.619 Z M 212.106,430.794 195.732,420.371 192.518,440.164 Z M 185.45,405.329 195.732,420.371 209.186,403.676 Z M 173.04,526.504 169.502,507.593 153.521,519.381 Z M 176.579,545.415 173.04,526.504 159.769,536.737 Z M 188.118,515.235 169.502,507.593 173.04,526.504 Z M 199.261,505.569 201.463,484.019 185.482,495.806 Z M 235.41,509.04 218.437,496.529 213.041,515.331 Z M 226.82,525.094 235.41,509.04 213.041,515.331 Z M 252.383,521.55 254.188,498.265 235.41,509.04 Z M 235.41,509.04 254.188,498.265 235.816,485.248 Z M 201.463,484.019 192.568,468.181 177.47,479.463 Z M 199.261,505.569 213.041,515.331 218.437,496.529 Z M 188.118,515.235 199.261,505.569 185.482,495.806 Z M 188.118,515.235 213.041,515.331 199.261,505.569 Z M 217.444,472.231 192.568,468.181 201.463,484.019 Z M 308.108,500.482 301.519,518.224 320.755,515.563 Z M 338.318,507.579 327.673,496.934 320.755,515.563 Z M 314.696,482.741 301.626,468.801 295.272,485.909 Z M 269.965,504.918 272.138,520.125 286.828,519.174 Z M 254.188,498.265 269.965,504.918 276.142,488.285 Z M 254.188,498.265 252.383,521.55 269.965,504.918 Z M 269.965,504.918 286.828,519.174 288.919,503.017 Z M 276.142,488.285 269.965,504.918 288.919,503.017 Z M 308.108,500.482 314.696,482.741 295.272,485.909 Z M 282.319,471.653 260.983,479.969 276.142,488.285 Z M 263.178,537.233 254.217,554.34 269.858,554.34 Z M 254.217,554.34 263.178,537.233 240.599,534.856 Z M 245.257,571.448 254.217,554.34 233.804,553.152 Z M 263.505,571.448 281.752,571.448 269.858,554.34 Z M 282.319,471.653 288.496,455.02 267.778,461.673 Z M 260.983,479.969 282.319,471.653 267.778,461.673 Z M 276.142,488.285 288.919,503.017 295.272,485.909 Z M 153.521,519.381 147.272,502.025 133.639,510.607 Z M 547.073,435.476 571.448,427.734 554.483,419.75 Z M 506.123,493.058 505.364,518.691 518.691,505.364 Z M 327.673,496.934 308.108,500.482 320.755,515.563 Z M 347.897,491.612 327.673,496.934 338.318,507.579 Z M 314.696,482.741 308.108,500.482 327.673,496.934 Z M 505.616,473.607 491.985,486.406 506.123,493.058 Z M 489.84,446.97 499.622,457.978 512.947,446.316 Z M 493.122,422.897 479.685,433.958 489.84,446.97 Z M 524.452,424.832 506.707,412.639 504.601,434.704 Z M 476.342,415.916 489.871,405.357 472.998,397.875 Z M 421.454,435.427 446.501,445.004 437.94,425.964 Z M 406.225,472.094 413.234,487.631 428.201,472.295 Z M 463.895,448.335 458.812,429.961 446.501,445.004 Z M 451.584,463.379 463.895,448.335 446.501,445.004 Z M 468.978,466.71 479.409,456.84 463.895,448.335 Z M 489.84,446.97 479.409,456.84 499.622,457.978 Z M 463.895,448.335 479.409,456.84 479.685,433.958 Z M 479.409,456.84 486.372,470.041 499.622,457.978 Z M 479.685,433.958 479.409,456.84 489.84,446.97 Z M 468.978,466.71 486.372,470.041 479.409,456.84 Z M 439.605,487.872 420.243,503.169 435.626,503.309 Z M 428.201,472.295 413.234,487.631 439.605,487.872 Z M 451.584,463.379 428.201,472.295 439.605,487.872 Z M 434.19,460.048 416.796,456.717 428.201,472.295 Z M 406.225,472.094 395.653,487.47 413.234,487.631 Z M 478.385,486.37 491.985,486.406 486.372,470.041 Z M 451.584,463.379 458.995,487.121 468.978,466.71 Z M 470.399,502.699 493.058,506.123 478.385,486.37 Z M 439.605,487.872 413.234,487.631 420.243,503.169 Z M 458.995,487.121 439.605,487.872 451.009,503.45 Z M 470.399,502.699 458.995,487.121 451.009,503.45 Z M 478.385,486.37 468.978,466.71 458.995,487.121 Z M 428.201,472.295 416.796,456.717 406.225,472.094 Z M 451.584,463.379 434.19,460.048 428.201,472.295 Z M 446.501,445.004 458.812,429.961 437.94,425.964 Z M 451.584,463.379 446.501,445.004 434.19,460.048 Z M 451.584,463.379 468.978,466.71 463.895,448.335 Z M 462.413,519.028 479.994,519.188 470.399,502.699 Z M 491.985,486.406 505.616,473.607 486.372,470.041 Z M 392.09,518.385 407.594,531.711 409.671,518.545 Z M 417.573,541.69 401.122,544.836 414.428,558.142 Z M 409.671,518.545 407.594,531.711 427.252,518.706 Z M 420.243,503.169 409.671,518.545 427.252,518.706 Z M 402.662,503.008 385.081,502.847 392.09,518.385 Z M 420.243,503.169 402.662,503.008 409.671,518.545 Z M 395.653,487.47 385.081,502.847 402.662,503.008 Z M 387.816,531.53 401.122,544.836 407.594,531.711 Z M 355.026,521.55 348.849,538.183 367.921,535.965 Z M 417.573,541.69 414.428,558.142 434.025,538.545 Z M 427.252,518.706 417.573,541.69 434.025,538.545 Z M 407.594,531.711 401.122,544.836 417.573,541.69 Z M 377.488,547.054 387.056,558.142 401.122,544.836 Z M 367.921,535.965 377.488,547.054 387.816,531.53 Z M 367.921,535.965 365.767,558.142 377.488,547.054 Z M 449.428,540.883 444.526,562.892 460.748,553.298 Z M 407.594,531.711 417.573,541.69 427.252,518.706 Z M 414.428,558.142 444.526,562.892 434.025,538.545 Z M 466.929,532.253 476.336,542.705 479.994,519.188 Z M 505.616,473.607 499.622,457.978 486.372,470.041 Z M 519.188,479.994 505.616,473.607 506.123,493.058 Z M 519.188,479.994 532.253,466.929 516.068,463.155 Z M 306.08,398.468 318.436,385.161 295.673,382.5 Z M 371.948,353.984 359.069,368.051 374.989,377.555 Z M 384.828,339.917 371.948,353.984 391.73,362.538 Z M 357.406,347.141 359.069,368.051 371.948,353.984 Z M 350.897,323.95 357.406,347.141 367.862,331.933 Z M 343.149,358.547 359.069,368.051 357.406,347.141 Z M 323.285,353.225 343.149,358.547 340.964,338.397 Z M 306.597,323.064 307.539,343.468 322.953,331.935 Z M 309.479,367.863 336.495,377.557 323.285,353.225 Z M 336.495,377.557 359.069,368.051 343.149,358.547 Z M 315.584,407.972 334.783,422.038 333.311,396.186 Z M 349.041,384.97 361.587,392.383 359.069,368.051 Z M 333.311,396.186 349.041,384.97 336.495,377.557 Z M 333.311,396.186 348.185,407.211 349.041,384.97 Z M 351.476,421.087 366.154,432.397 361.539,406.45 Z M 334.783,422.038 351.476,421.087 348.185,407.211 Z M 345.654,437.721 366.154,432.397 351.476,421.087 Z M 397.717,386.489 408.238,371.186 391.73,362.538 Z M 374.989,377.555 397.717,386.489 391.73,362.538 Z M 387.196,401.792 410.441,392.477 397.717,386.489 Z M 366.154,432.397 385.158,421.086 361.539,406.45 Z M 402.789,411.771 410.441,392.477 387.196,401.792 Z M 340.964,338.397 357.406,347.141 350.897,323.95 Z M 401.864,445.777 391.699,460.562 416.796,456.717 Z M 505.364,518.691 506.123,493.058 493.058,506.123 Z M 458.812,429.961 448.512,410.587 437.94,425.964 Z M 476.342,415.916 462.427,413.252 458.812,429.961 Z M 476.342,415.916 472.998,397.875 462.427,413.252 Z M 489.871,405.357 486.621,387.817 472.998,397.875 Z M 493.122,422.897 489.871,405.357 476.342,415.916 Z M 503.586,395.8 486.621,387.817 489.871,405.357 Z M 486.621,387.817 469.655,379.834 472.998,397.875 Z M 532.253,466.929 542.705,476.336 553.298,460.748 Z M 528.353,445.88 524.452,424.832 512.947,446.316 Z M 571.448,427.734 547.073,435.476 562.892,444.526 Z M 554.483,419.75 537.517,411.767 547.073,435.476 Z M 519.188,479.994 506.123,493.058 531.154,491.227 Z M 542.705,476.336 519.188,479.994 531.154,491.227 Z M 435.626,503.309 420.243,503.169 427.252,518.706 Z M 443.122,524.125 435.626,503.309 427.252,518.706 Z M 451.009,503.45 439.605,487.872 435.626,503.309 Z M 462.413,519.028 451.009,503.45 443.122,524.125 Z M 470.399,502.699 478.385,486.37 458.995,487.121 Z M 401.864,445.777 416.796,456.717 421.454,435.427 Z M 458.995,487.121 451.584,463.379 439.605,487.872 Z M 391.699,460.562 406.225,472.094 416.796,456.717 Z M 451.009,503.45 435.626,503.309 443.122,524.125 Z M 395.653,487.47 402.662,503.008 413.234,487.631 Z M 413.234,487.631 402.662,503.008 420.243,503.169 Z M 380.832,443.707 374.095,461.671 391.699,460.562 Z M 392.09,518.385 387.816,531.53 407.594,531.711 Z M 402.662,503.008 392.09,518.385 409.671,518.545 Z M 385.081,502.847 374.51,518.224 392.09,518.385 Z M 518.691,505.364 531.154,491.227 506.123,493.058 Z M 462.413,519.028 470.399,502.699 451.009,503.45 Z M 423.082,378.172 435.724,363.867 418.759,355.884 Z M 410.441,392.477 423.082,378.172 408.238,371.186 Z M 439.591,386.82 435.724,363.867 423.082,378.172 Z M 448.512,410.587 439.591,386.82 426.492,401.791 Z M 452.69,371.85 435.724,363.867 439.591,386.82 Z M 355.026,521.55 374.51,518.224 361.203,504.918 Z M 347.897,491.612 338.318,507.579 361.203,504.918 Z M 349.167,553.707 328.987,554.816 336.495,571.448 Z M 367.921,535.965 348.849,538.183 349.167,553.707 Z M 387.056,558.142 377.488,547.054 365.767,558.142 Z M 387.816,531.53 374.51,518.224 367.921,535.965 Z M 330.108,539.514 328.987,554.816 349.167,553.707 Z M 466.929,532.253 460.748,553.298 476.336,542.705 Z M 462.413,519.028 443.122,524.125 466.929,532.253 Z M 493.058,506.123 470.399,502.699 479.994,519.188 Z M 458.812,429.961 463.895,448.335 479.685,433.958 Z M 476.342,415.916 458.812,429.961 479.685,433.958 Z M 446.501,445.004 421.454,435.427 434.19,460.048 Z M 493.058,506.123 491.985,486.406 478.385,486.37 Z M 493.058,506.123 506.123,493.058 491.985,486.406 Z M 466.929,532.253 443.122,524.125 449.428,540.883 Z M 479.994,519.188 491.227,531.154 493.058,506.123 Z M 491.227,531.154 505.364,518.691 493.058,506.123 Z M 532.253,466.929 519.188,479.994 542.705,476.336 Z M 562.892,444.526 547.073,435.476 540.826,453.314 Z M 524.452,424.832 504.601,434.704 512.947,446.316 Z M 540.826,453.314 547.073,435.476 528.353,445.88 Z M 506.707,412.639 503.586,395.8 489.871,405.357 Z M 504.601,434.704 506.707,412.639 493.122,422.897 Z M 520.552,403.784 503.586,395.8 506.707,412.639 Z M 571.448,372.991 590.575,374.607 571.448,354.743 Z M 47.2972,224.333 41.0488,206.978 28.5519,227.009 Z M 476.336,542.705 491.227,531.154 479.994,519.188 Z M 245.257,571.448 227.009,571.448 225.393,590.575 Z M 281.752,571.448 290.559,555.924 269.858,554.34 Z M 227.009,571.448 208.762,571.448 207.295,585.317 Z M 263.505,571.448 254.217,554.34 245.257,571.448 Z M 208.762,571.448 189.563,578.933 207.295,585.317 Z M 233.804,553.152 224.862,541.268 218.068,559.564 Z M 193.389,554.092 189.563,578.933 208.762,571.448 Z M 16.9329,346.355 28.5519,336.495 15.4587,327.924 Z M 5.31382,356.214 16.9329,346.355 2.36559,337.6 Z M 5.31382,356.214 28.5519,354.743 16.9329,346.355 Z M 66.0426,385.887 84.7879,383.211 80.1016,370.194 Z M 50.3602,408.408 36.6749,406.502 44.7979,421.765 Z M 66.0426,331.144 84.7879,328.468 78.5395,311.112 Z M 61.3562,349.3 62.9184,368.085 75.4153,352.615 Z M 66.0426,331.144 61.3562,349.3 75.4153,352.615 Z M 47.2972,345.985 45.7351,370.538 61.3562,349.3 Z M 28.5519,336.495 47.2972,345.985 45.2144,328.034 Z M 45.7351,370.538 62.9184,368.085 61.3562,349.3 Z M 75.4153,352.615 84.7879,328.468 66.0426,331.144 Z M 28.5519,372.991 28.5519,354.743 9.42505,374.607 Z M 28.5519,391.238 28.5519,372.991 14.683,392.705 Z M 66.11,405.879 66.1775,425.872 80.7122,416.545 Z M 55.9226,395.051 66.11,405.879 66.0426,385.887 Z M 45.7351,384.224 55.9226,395.051 66.0426,385.887 Z M 45.7351,384.224 36.6749,406.502 55.9226,395.051 Z M 50.3602,408.408 66.1775,425.872 66.11,405.879 Z M 28.5519,427.734 44.7979,421.765 36.6749,406.502 Z M 28.5519,427.734 37.108,444.526 44.7979,421.765 Z M 75.4153,352.615 97.2848,363.179 91.0364,345.824 Z M 66.0426,385.887 80.1016,370.194 62.9184,368.085 Z M 84.7879,383.211 97.2848,363.179 80.1016,370.194 Z M 75.4153,352.615 80.1016,370.194 97.2848,363.179 Z M 84.7879,328.468 75.4153,352.615 91.0364,345.824 Z M 66.0426,331.144 45.2144,328.034 47.2972,345.985 Z M 28.5519,391.238 45.7351,384.224 28.5519,372.991 Z M 84.7879,383.211 95.247,407.218 103.533,380.535 Z M 97.2848,363.179 84.7879,383.211 103.533,380.535 Z M 66.0426,385.887 66.11,405.879 82.7501,399.878 Z M 45.7351,384.224 66.0426,385.887 62.9184,368.085 Z M 28.5519,372.991 45.7351,384.224 45.7351,370.538 Z M 36.6749,406.502 21.0671,410.437 28.5519,427.734 Z M 36.6749,406.502 28.5519,391.238 21.0671,410.437 Z M 50.3602,408.408 55.9226,395.051 36.6749,406.502 Z M 66.1775,425.872 50.3602,408.408 44.7979,421.765 Z M 66.11,405.879 55.9226,395.051 50.3602,408.408 Z M 45.7351,384.224 28.5519,391.238 36.6749,406.502 Z M 97.3598,300.313 88.7588,284.307 72.291,293.756 Z M 116.547,310.244 97.3598,300.313 97.341,316.03 Z M 107.309,280.643 88.7588,284.307 97.3598,300.313 Z M 28.5519,245.257 28.5519,263.505 44.173,261.275 Z M 61.8769,316.532 45.2144,328.034 66.0426,331.144 Z M 78.5395,311.112 61.8769,316.532 66.0426,331.144 Z M 57.7113,301.92 43.1316,310.084 61.8769,316.532 Z M 66.0426,276.401 57.7113,301.92 72.291,293.756 Z M 43.1316,310.084 28.5519,318.248 45.2144,328.034 Z M 47.2972,279.076 45.2144,294.58 57.7113,301.92 Z M 28.5519,300 28.5519,318.248 43.1316,310.084 Z M 15.4587,327.924 28.5519,318.248 14.5719,309.419 Z M 2.36559,337.6 15.4587,327.924 0.591981,318.837 Z M 2.36559,337.6 16.9329,346.355 15.4587,327.924 Z M 189.223,305.991 175.003,294.016 174.919,318.633 Z M 178.288,279.711 164.94,278.714 175.003,294.016 Z M 198.207,252.1 181.573,265.407 201.782,271.394 Z M 181.241,244.116 164.276,236.133 168.045,257.867 Z M 148.306,292.021 161.613,305.327 175.003,294.016 Z M 97.341,316.03 84.7879,328.468 105.354,332.373 Z M 122.447,291.153 97.3598,300.313 116.547,310.244 Z M 78.5395,311.112 84.7879,328.468 97.341,316.03 Z M 133.989,305.471 143.968,315.451 148.306,292.021 Z M 135,278.715 122.447,291.153 148.306,292.021 Z M 133.989,305.471 119.782,325.141 135.881,328.468 Z M 112.812,354.27 91.0364,345.824 97.2848,363.179 Z M 57.7113,301.92 61.8769,316.532 78.5395,311.112 Z M 72.291,293.756 57.7113,301.92 78.5395,311.112 Z M 28.5519,336.495 28.5519,354.743 47.2972,345.985 Z M 47.2972,345.985 28.5519,354.743 45.7351,370.538 Z M 148.306,292.021 143.968,315.451 161.613,305.327 Z M 119.782,325.141 123.016,340.038 135.881,328.468 Z M 97.341,316.03 119.782,325.141 116.547,310.244 Z M 105.354,332.373 123.016,340.038 119.782,325.141 Z M 97.341,316.03 105.354,332.373 119.782,325.141 Z M 84.7879,328.468 91.0364,345.824 105.354,332.373 Z M 97.2848,363.179 103.533,380.535 117.81,368.155 Z M 28.5519,318.248 28.5519,336.495 45.2144,328.034 Z M 109.782,397.891 130.28,403.58 125.073,389.116 Z M 28.5519,354.743 5.31382,356.214 9.42505,374.607 Z M 45.2144,294.58 28.5519,300 43.1316,310.084 Z M 57.7113,301.92 45.2144,294.58 43.1316,310.084 Z M 47.2972,279.076 28.5519,281.752 45.2144,294.58 Z M 59.7941,259.045 47.2972,279.076 66.0426,276.401 Z M 28.5519,281.752 28.5519,300 45.2144,294.58 Z M 0.591981,318.837 14.5719,309.419 0,300 Z M 34.8003,189.622 55.164,198.878 45.5174,180.25 Z M 28.5519,227.009 41.0488,206.978 14.683,207.295 Z M 47.2972,224.333 55.164,198.878 41.0488,206.978 Z M 28.5519,227.009 14.683,207.295 9.42505,225.393 Z M 5.31382,243.786 28.5519,245.257 9.42505,225.393 Z M 45.5174,180.25 45.9076,166.018 28.5519,172.266 Z M 14.683,207.295 41.0488,206.978 21.0671,189.563 Z M 28.5519,245.257 47.2972,224.333 28.5519,227.009 Z M 104.231,225.49 95.0822,238.797 108.388,252.103 Z M 96.4139,204.2 104.231,225.49 113.379,212.183 Z M 81.7761,225.49 95.0822,238.797 104.231,225.49 Z M 61.0079,226.937 70.7851,242.268 81.7761,225.49 Z M 47.2972,224.333 61.0079,226.937 68.4701,212.184 Z M 47.2972,224.333 53.5457,241.689 61.0079,226.937 Z M 53.5457,241.689 59.7941,259.045 70.7851,242.268 Z M 96.4139,204.2 81.7761,225.49 104.231,225.49 Z M 28.5519,245.257 28.5519,227.009 9.42505,225.393 Z M 28.5519,245.257 53.5457,241.689 47.2972,224.333 Z M 16.9329,253.645 28.5519,263.505 28.5519,245.257 Z M 2.36559,262.4 16.9329,253.645 5.31382,243.786 Z M 2.36559,262.4 15.4587,272.076 16.9329,253.645 Z M 15.4587,272.076 0.591981,281.163 14.5719,290.581 Z M 151.406,209.522 130.345,220.166 147.31,228.15 Z M 140.875,172.266 131.71,185.572 155.501,190.894 Z M 113.379,212.183 130.345,220.166 133.855,204.2 Z M 68.4701,212.184 55.164,198.878 47.2972,224.333 Z M 53.5457,241.689 70.7851,242.268 61.0079,226.937 Z M 96.4139,204.2 79.4484,196.216 68.4701,212.184 Z M 133.855,204.2 117.767,192.225 113.379,212.183 Z M 65.1155,176.258 63.2634,159.769 45.9076,166.018 Z M 55.164,198.878 65.1155,176.258 45.5174,180.25 Z M 84.7136,172.266 63.2634,159.769 65.1155,176.258 Z M 104.231,225.49 130.345,220.166 113.379,212.183 Z M 14.5719,290.581 0.591981,281.163 0,300 Z M 14.5719,309.419 14.5719,290.581 0,300 Z M 28.5519,300 28.5519,281.752 14.5719,290.581 Z M 15.4587,272.076 28.5519,263.505 16.9329,253.645 Z M 0.591981,281.163 15.4587,272.076 2.36559,262.4 Z M 28.5519,281.752 28.5519,263.505 15.4587,272.076 Z M 14.5719,290.581 28.5519,281.752 15.4587,272.076 Z M 45.2144,328.034 61.8769,316.532 43.1316,310.084 Z M 57.7113,301.92 66.0426,276.401 47.2972,279.076 Z M 47.2972,279.076 59.7941,259.045 44.173,261.275 Z M 28.5519,245.257 5.31382,243.786 16.9329,253.645 Z M 211.208,151.438 195.835,152.479 197.037,172.266 Z M 234.478,172.266 235.064,153.521 215.757,172.266 Z M 182.608,134.776 184.753,116.03 167.398,122.279 Z M 217.611,137.9 218.538,120.717 200.418,130.61 Z M 235.064,153.521 217.611,137.9 211.208,151.438 Z M 235.064,153.521 245.01,134.776 217.611,137.9 Z M 202.109,109.782 184.753,116.03 200.418,130.61 Z M 164.797,138.941 167.398,122.279 150.042,128.527 Z M 132.686,134.776 145.459,150.397 150.042,128.527 Z M 182.608,134.776 200.418,130.61 184.753,116.03 Z M 180.462,153.521 182.608,134.776 164.797,138.941 Z M 180.462,153.521 195.835,152.479 182.608,134.776 Z M 197.037,172.266 180.462,153.521 178.316,172.266 Z M 182.608,134.776 167.398,122.279 164.797,138.941 Z M 133.071,67.7467 155.396,65.7302 139.252,46.7016 Z M 145.992,79.8176 133.071,67.7467 120.006,80.8116 Z M 171.833,103.959 164.724,80.2649 155.956,104.101 Z M 164.724,80.2649 174.128,66.1775 155.396,65.7302 Z M 164.797,138.941 162.196,155.604 180.462,153.521 Z M 115.331,141.024 98.0711,130.515 97.9748,147.272 Z M 162.196,155.604 159.596,172.266 178.316,172.266 Z M 145.459,150.397 162.196,155.604 164.797,138.941 Z M 145.459,150.397 159.596,172.266 162.196,155.604 Z M 132.686,134.776 127.42,153.521 145.459,150.397 Z M 131.71,185.572 117.767,192.225 133.855,204.2 Z M 108.388,252.103 127.849,240.126 104.231,225.49 Z M 189.87,226.154 168.956,214.844 164.276,236.133 Z M 211.37,192.225 188.847,188.233 189.139,208.191 Z M 226.756,207.393 211.37,192.225 206.982,212.183 Z M 227.224,188.233 215.757,172.266 211.37,192.225 Z M 189.87,226.154 164.276,236.133 181.241,244.116 Z M 188.847,188.233 173.636,193.555 189.139,208.191 Z M 151.406,209.522 133.855,204.2 130.345,220.166 Z M 173.636,193.555 151.406,209.522 168.956,214.844 Z M 155.501,190.894 133.855,204.2 151.406,209.522 Z M 181.241,244.116 198.207,252.1 205.461,236.133 Z M 135.888,255.65 121.694,265.409 135,278.715 Z M 154.517,250.327 135.888,255.65 150.414,267.182 Z M 127.849,240.126 121.694,265.409 135.888,255.65 Z M 164.94,278.714 150.414,267.182 148.306,292.021 Z M 164.276,236.133 154.517,250.327 168.045,257.867 Z M 164.276,236.133 147.31,228.15 154.517,250.327 Z M 96.3559,265.987 121.694,265.409 108.388,252.103 Z M 78.5395,311.112 97.341,316.03 97.3598,300.313 Z M 116.547,310.244 133.989,305.471 122.447,291.153 Z M 135.888,255.65 154.517,250.327 127.849,240.126 Z M 148.306,292.021 150.414,267.182 135,278.715 Z M 164.94,278.714 181.573,265.407 168.045,257.867 Z M 150.414,267.182 135.888,255.65 135,278.715 Z M 189.87,226.154 206.982,212.183 189.139,208.191 Z M 147.31,228.15 127.849,240.126 154.517,250.327 Z M 88.7588,284.307 66.0426,276.401 72.291,293.756 Z M 121.694,265.409 96.3559,265.987 107.309,280.643 Z M 108.388,252.103 95.0822,238.797 85.4023,251.331 Z M 250.742,226.021 234.576,238.528 256.709,241.455 Z M 269.872,224.158 250.742,226.021 256.709,241.455 Z M 244.774,210.586 230.383,224.956 250.742,226.021 Z M 215.172,260.083 238.768,252.1 219.034,242.52 Z M 215.172,260.083 232.138,268.067 238.768,252.1 Z M 14.5719,309.419 28.5519,318.248 28.5519,300 Z M 14.5719,290.581 14.5719,309.419 28.5519,300 Z M 0.591981,318.837 15.4587,327.924 14.5719,309.419 Z M 155.474,562.892 159.769,536.737 139.252,553.298 Z M 156.904,475.558 134.776,467.314 141.024,484.669 Z M 96.2996,422.566 88.0586,438.287 104.101,444.044 Z M 123.983,495.396 106.942,506.123 120.006,519.188 Z M 134.776,467.314 121.143,475.895 141.024,484.669 Z M 107.51,484.477 93.8766,493.058 106.942,506.123 Z M 121.143,475.895 107.51,484.477 123.983,495.396 Z M 141.024,484.669 121.143,475.895 123.983,495.396 Z M 134.776,467.314 112.622,459.97 121.143,475.895 Z M 112.622,459.97 94.634,464.196 107.51,484.477 Z M 128.527,449.958 112.622,459.97 134.776,467.314 Z M 80.8116,479.994 68.846,491.227 93.8766,493.058 Z M 57.2949,476.336 80.8116,479.994 67.7467,466.929 Z M 68.846,491.227 81.3094,505.364 93.8766,493.058 Z M 134.776,467.314 156.904,475.558 151.915,457.479 Z M 237.615,408.304 236.302,429.999 252.962,423.057 Z M 225.317,394.42 237.615,408.304 241.449,385.163 Z M 228.143,371.857 225.317,394.42 241.449,385.163 Z M 209.186,403.676 226.322,420.019 225.317,394.42 Z M 209.186,403.676 212.106,430.794 226.322,420.019 Z M 147.272,502.025 169.502,507.593 164.034,492.407 Z M 263.767,433.217 249.406,448.656 274.572,443.377 Z M 281.367,425.081 263.767,433.217 274.572,443.377 Z M 252.962,423.057 249.406,448.656 263.767,433.217 Z M 254.755,398.469 252.962,423.057 268.061,411.775 Z M 236.302,429.999 249.406,448.656 252.962,423.057 Z M 241.449,385.163 237.615,408.304 254.755,398.469 Z M 212.106,430.794 222.765,445.619 236.302,429.999 Z M 147.272,502.025 153.521,519.381 169.502,507.593 Z M 291.3,410.634 281.367,425.081 305.129,423.18 Z M 95.247,407.218 109.782,397.891 103.533,380.535 Z M 79.8176,454.008 94.634,464.196 104.101,444.044 Z M 65.7301,444.604 79.8176,454.008 88.0586,438.287 Z M 51.6427,435.199 65.7301,444.604 66.1775,425.872 Z M 51.6427,435.199 46.7016,460.748 65.7301,444.604 Z M 67.7467,466.929 80.8116,479.994 79.8176,454.008 Z M 116.03,415.247 109.782,397.891 95.247,407.218 Z M 96.2996,422.566 122.279,432.602 116.03,415.247 Z M 80.7122,416.545 66.1775,425.872 88.0586,438.287 Z M 82.7501,399.878 66.11,405.879 80.7122,416.545 Z M 84.7879,383.211 82.7501,399.878 95.247,407.218 Z M 84.7879,383.211 66.0426,385.887 82.7501,399.878 Z M 95.247,407.218 82.7501,399.878 80.7122,416.545 Z M 104.101,444.044 112.622,459.97 128.527,449.958 Z M 88.0586,438.287 79.8176,454.008 104.101,444.044 Z M 80.7122,416.545 88.0586,438.287 96.2996,422.566 Z M 66.1775,425.872 65.7301,444.604 88.0586,438.287 Z M 94.634,464.196 112.622,459.97 104.101,444.044 Z M 217.444,472.231 204.542,448.222 192.568,468.181 Z M 192.518,440.164 180.493,432.106 183.673,452.344 Z M 204.542,448.222 192.518,440.164 183.673,452.344 Z M 204.542,448.222 212.106,430.794 192.518,440.164 Z M 228.143,371.857 210.499,381.981 225.317,394.42 Z M 199.681,394.172 183.984,383.235 185.45,405.329 Z M 210.499,381.981 199.681,394.172 209.186,403.676 Z M 210.499,381.981 198.369,368 199.681,394.172 Z M 201.531,345.245 198.369,368 214.837,358.551 Z M 201.531,345.245 188.225,331.939 187.281,356.912 Z M 144.659,440.702 122.279,432.602 128.527,449.958 Z M 168.558,395.577 158.78,380.246 144.53,391.913 Z M 171.22,416.486 168.558,395.577 153.131,407.919 Z M 185.45,405.329 183.984,383.235 168.558,395.577 Z M 130.28,403.58 116.03,415.247 137.705,420.26 Z M 171.22,416.486 180.493,432.106 195.732,420.371 Z M 122.279,432.602 144.659,440.702 137.705,420.26 Z M 151.915,457.479 169.457,463.119 165.254,443.842 Z M 144.659,440.702 128.527,449.958 151.915,457.479 Z M 165.254,443.842 144.659,440.702 151.915,457.479 Z M 156.989,427.643 137.705,420.26 144.659,440.702 Z M 198.369,368 210.499,381.981 214.837,358.551 Z M 322.953,331.935 333.931,315.967 316.966,307.983 Z M 306.08,398.468 315.584,407.972 318.436,385.161 Z M 309.479,367.863 295.673,382.5 318.436,385.161 Z M 291.3,410.634 315.584,407.972 306.08,398.468 Z M 268.061,411.775 291.3,410.634 281.867,397.138 Z M 281.367,425.081 294.673,438.387 305.129,423.18 Z M 340.964,338.397 333.931,315.967 322.953,331.935 Z M 267.951,384.719 268.061,411.775 281.867,397.138 Z M 300,300 306.597,323.064 316.966,307.983 Z M 199.681,394.172 198.369,368 183.984,383.235 Z M 225.317,394.42 210.499,381.981 209.186,403.676 Z M 228.143,371.857 214.837,358.551 210.499,381.981 Z M 281.867,397.138 291.3,410.634 306.08,398.468 Z M 380.074,191.227 391.393,205.974 399.063,190.007 Z M 359.452,189.231 353.383,206.196 375.906,210.187 Z M 346.801,172.266 359.452,189.231 365.522,172.266 Z M 340.115,190.514 353.383,206.196 359.452,189.231 Z M 340.115,190.514 338.277,211.043 353.383,206.196 Z M 356.682,307.096 362.467,290.243 337.88,298.004 Z M 333.931,315.967 356.682,307.096 337.88,298.004 Z M 350.897,323.95 367.862,331.933 373.842,314.193 Z M 388.923,321.289 367.862,331.933 384.828,339.917 Z M 401.793,347.9 405.654,330.337 384.828,339.917 Z M 403.353,284.033 379.562,278.711 379.822,296.452 Z M 363.401,267.069 346.509,280.042 362.467,290.243 Z M 366.749,232.918 341.244,240.125 367.57,248.108 Z M 325.49,269.207 304.012,281.752 323.035,291.019 Z M 346.509,280.042 325.49,269.207 323.035,291.019 Z M 329.752,249.819 312.035,245.257 308.023,263.505 Z M 373.842,314.193 367.862,331.933 388.923,321.289 Z M 122.279,432.602 137.705,420.26 116.03,415.247 Z M 201.782,271.394 181.573,265.407 178.288,279.711 Z M 28.5519,336.495 28.5519,318.248 15.4587,327.924 Z M 14.683,392.705 28.5519,372.991 9.42505,374.607 Z M 62.9184,368.085 45.7351,370.538 45.7351,384.224 Z M 75.4153,352.615 62.9184,368.085 80.1016,370.194 Z M 61.3562,349.3 66.0426,331.144 47.2972,345.985 Z M 28.5519,354.743 28.5519,372.991 45.7351,370.538 Z M 16.9329,346.355 28.5519,354.743 28.5519,336.495 Z M 14.683,392.705 21.0671,410.437 28.5519,391.238 Z M 153.131,407.919 130.28,403.58 137.705,420.26 Z M 132.087,355.774 123.016,340.038 112.812,354.27 Z M 141.159,371.51 132.087,355.774 117.81,368.155 Z M 141.159,371.51 156.847,358.32 132.087,355.774 Z M 156.847,358.32 172.536,345.129 146.364,343.394 Z M 183.984,383.235 173.031,368.579 158.78,380.246 Z M 187.281,356.912 172.536,345.129 173.031,368.579 Z M 159.392,327.542 143.968,315.451 135.881,328.468 Z M 112.812,354.27 117.81,368.155 132.087,355.774 Z M 105.354,332.373 112.812,354.27 123.016,340.038 Z M 97.2848,363.179 117.81,368.155 112.812,354.27 Z M 103.533,380.535 125.073,389.116 117.81,368.155 Z M 103.533,380.535 109.782,397.891 125.073,389.116 Z M 107.309,280.643 122.447,291.153 121.694,265.409 Z M 91.0364,345.824 112.812,354.27 105.354,332.373 Z M 122.447,291.153 135,278.715 121.694,265.409 Z M 97.3598,300.313 122.447,291.153 107.309,280.643 Z M 133.989,305.471 148.306,292.021 122.447,291.153 Z M 168.045,257.867 181.573,265.407 181.241,244.116 Z M 150.414,267.182 168.045,257.867 154.517,250.327 Z M 150.414,267.182 164.94,278.714 168.045,257.867 Z M 44.173,261.275 53.5457,241.689 28.5519,245.257 Z M 44.173,261.275 59.7941,259.045 53.5457,241.689 Z M 28.5519,281.752 47.2972,279.076 28.5519,263.505 Z M 28.5519,263.505 47.2972,279.076 44.173,261.275 Z M 59.7941,259.045 66.0426,276.401 75.7225,263.866 Z M 88.7588,284.307 96.3559,265.987 75.7225,263.866 Z M 78.5395,311.112 97.3598,300.313 72.291,293.756 Z M 107.309,280.643 96.3559,265.987 88.7588,284.307 Z M 61.0079,226.937 81.7761,225.49 68.4701,212.184 Z M 75.7225,263.866 96.3559,265.987 85.4023,251.331 Z M 70.7851,242.268 75.7225,263.866 85.4023,251.331 Z M 66.0426,276.401 88.7588,284.307 75.7225,263.866 Z M 95.0822,238.797 81.7761,225.49 70.7851,242.268 Z M 85.4023,251.331 95.0822,238.797 70.7851,242.268 Z M 59.7941,259.045 75.7225,263.866 70.7851,242.268 Z M 96.3559,265.987 108.388,252.103 85.4023,251.331 Z M 80.7122,416.545 96.2996,422.566 95.247,407.218 Z M 37.108,444.526 51.6427,435.199 44.7979,421.765 Z M 65.7301,444.604 46.7016,460.748 67.7467,466.929 Z M 44.7979,421.765 51.6427,435.199 66.1775,425.872 Z M 37.108,444.526 46.7016,460.748 51.6427,435.199 Z M 159.769,536.737 133.071,532.253 139.252,553.298 Z M 133.639,510.607 120.006,519.188 133.071,532.253 Z M 123.983,495.396 133.639,510.607 147.272,502.025 Z M 123.983,495.396 120.006,519.188 133.639,510.607 Z M 106.942,506.123 108.773,531.154 120.006,519.188 Z M 155.474,562.892 166.018,554.092 159.769,536.737 Z M 93.8766,493.058 81.3094,505.364 106.942,506.123 Z M 107.51,484.477 106.942,506.123 123.983,495.396 Z M 106.942,506.123 81.3094,505.364 94.6359,518.691 Z M 108.773,531.154 106.942,506.123 94.6359,518.691 Z M 107.51,484.477 121.143,475.895 112.622,459.97 Z M 123.664,542.705 120.006,519.188 108.773,531.154 Z M 67.7467,466.929 46.7016,460.748 57.2949,476.336 Z M 68.846,491.227 80.8116,479.994 57.2949,476.336 Z M 96.2996,422.566 104.101,444.044 122.279,432.602 Z M 80.8116,479.994 94.634,464.196 79.8176,454.008 Z M 80.8116,479.994 93.8766,493.058 107.51,484.477 Z M 107.51,484.477 94.634,464.196 80.8116,479.994 Z M 122.279,432.602 104.101,444.044 128.527,449.958 Z M 96.2996,422.566 116.03,415.247 95.247,407.218 Z M 207.295,585.317 225.393,590.575 227.009,571.448 Z M 166.018,554.092 155.474,562.892 172.266,571.448 Z M 189.563,578.933 193.389,554.092 172.266,571.448 Z M 133.071,532.253 120.006,519.188 123.664,542.705 Z M 139.252,553.298 133.071,532.253 123.664,542.705 Z M 133.071,532.253 153.521,519.381 133.639,510.607 Z M 159.769,536.737 153.521,519.381 133.071,532.253 Z M 193.389,554.092 176.579,545.415 172.266,571.448 Z M 218.068,559.564 209.126,547.68 208.762,571.448 Z M 227.009,571.448 218.068,559.564 208.762,571.448 Z M 227.009,571.448 233.804,553.152 218.068,559.564 Z M 190.754,534.664 173.04,526.504 176.579,545.415 Z M 79.8176,454.008 65.7301,444.604 67.7467,466.929 Z M 243.786,594.686 253.645,583.067 245.257,571.448 Z M 225.393,590.575 243.786,594.686 245.257,571.448 Z M 349.167,553.707 336.495,571.448 354.743,571.448 Z M 320.755,515.563 301.519,518.224 313.837,534.191 Z M 336.038,523.546 338.318,507.579 320.755,515.563 Z M 349.167,553.707 348.849,538.183 330.108,539.514 Z M 355.026,521.55 338.318,507.579 336.038,523.546 Z M 327.673,496.934 334.591,478.306 314.696,482.741 Z M 318.248,571.448 336.495,571.448 328.987,554.816 Z M 309.579,555.481 318.248,571.448 328.987,554.816 Z M 313.837,534.191 301.519,518.224 294.93,535.965 Z M 309.579,555.481 313.837,534.191 294.93,535.965 Z M 330.108,539.514 336.038,523.546 313.837,534.191 Z M 354.743,571.448 365.767,558.142 349.167,553.707 Z M 327.673,496.934 347.897,491.612 334.591,478.306 Z M 313.837,534.191 336.038,523.546 320.755,515.563 Z M 355.026,521.55 361.203,504.918 338.318,507.579 Z M 290.581,585.428 281.163,599.408 300,600 Z M 281.752,571.448 290.581,585.428 300,571.448 Z M 281.752,571.448 272.076,584.541 290.581,585.428 Z M 309.419,585.428 290.581,585.428 300,600 Z M 337.6,597.634 327.924,584.541 318.837,599.408 Z M 290.581,585.428 272.076,584.541 281.163,599.408 Z M 165.254,443.842 169.457,463.119 183.673,452.344 Z M 156.989,427.643 165.254,443.842 180.493,432.106 Z M 156.989,427.643 144.659,440.702 165.254,443.842 Z M 134.776,467.314 151.915,457.479 128.527,449.958 Z M 165.254,443.842 183.673,452.344 180.493,432.106 Z M 156.904,475.558 169.457,463.119 151.915,457.479 Z M 156.904,475.558 164.034,492.407 177.47,479.463 Z M 147.272,502.025 164.034,492.407 141.024,484.669 Z M 192.568,468.181 183.673,452.344 169.457,463.119 Z M 177.47,479.463 192.568,468.181 169.457,463.119 Z M 156.904,475.558 177.47,479.463 169.457,463.119 Z M 164.034,492.407 169.502,507.593 185.482,495.806 Z M 141.024,484.669 164.034,492.407 156.904,475.558 Z M 164.034,492.407 185.482,495.806 177.47,479.463 Z M 159.769,536.737 173.04,526.504 153.521,519.381 Z M 176.579,545.415 166.018,554.092 172.266,571.448 Z M 190.754,534.664 176.579,545.415 193.389,554.092 Z M 209.126,547.68 190.754,534.664 193.389,554.092 Z M 188.118,515.235 173.04,526.504 190.754,534.664 Z M 190.754,534.664 211.083,531.506 188.118,515.235 Z M 208.762,571.448 209.126,547.68 193.389,554.092 Z M 224.862,541.268 240.599,534.856 226.82,525.094 Z M 185.482,495.806 169.502,507.593 188.118,515.235 Z M 159.769,536.737 166.018,554.092 176.579,545.415 Z M 247.204,470.206 267.778,461.673 249.406,448.656 Z M 233.425,460.444 247.204,470.206 249.406,448.656 Z M 254.188,498.265 276.142,488.285 260.983,479.969 Z M 233.425,460.444 217.444,472.231 235.816,485.248 Z M 222.765,445.619 233.425,460.444 249.406,448.656 Z M 222.765,445.619 217.444,472.231 233.425,460.444 Z M 252.383,521.55 272.138,520.125 269.965,504.918 Z M 295.272,485.909 301.626,468.801 282.319,471.653 Z M 276.142,488.285 295.272,485.909 282.319,471.653 Z M 288.919,503.017 308.108,500.482 295.272,485.909 Z M 294.673,438.387 281.367,425.081 274.572,443.377 Z M 253.645,583.067 262.4,597.634 272.076,584.541 Z M 245.257,571.448 253.645,583.067 263.505,571.448 Z M 243.786,594.686 262.4,597.634 253.645,583.067 Z M 309.419,585.428 318.248,571.448 300,571.448 Z M 327.924,584.541 336.495,571.448 318.248,571.448 Z M 309.419,585.428 327.924,584.541 318.248,571.448 Z M 337.6,597.634 346.355,583.067 327.924,584.541 Z M 387.056,558.142 372.991,571.448 391.238,571.448 Z M 367.921,535.965 349.167,553.707 365.767,558.142 Z M 336.038,523.546 348.849,538.183 355.026,521.55 Z M 336.038,523.546 330.108,539.514 348.849,538.183 Z M 354.743,571.448 372.991,571.448 365.767,558.142 Z M 392.705,585.317 391.238,571.448 372.991,571.448 Z M 354.743,571.448 336.495,571.448 346.355,583.067 Z M 374.607,590.575 354.743,571.448 356.214,594.686 Z M 301.626,468.801 314.696,482.741 321.285,465 Z M 288.496,455.02 301.626,468.801 307.979,451.694 Z M 288.496,455.02 282.319,471.653 301.626,468.801 Z M 313.837,534.191 309.579,555.481 330.108,539.514 Z M 279.054,536.599 290.559,555.924 294.93,535.965 Z M 279.054,536.599 269.858,554.34 290.559,555.924 Z M 286.828,519.174 279.054,536.599 294.93,535.965 Z M 263.178,537.233 269.858,554.34 279.054,536.599 Z M 252.383,521.55 263.178,537.233 272.138,520.125 Z M 252.383,521.55 240.599,534.856 263.178,537.233 Z M 254.217,554.34 263.505,571.448 269.858,554.34 Z M 281.752,571.448 300,571.448 290.559,555.924 Z M 290.559,555.924 300,571.448 309.579,555.481 Z M 272.076,584.541 281.752,571.448 263.505,571.448 Z M 253.645,583.067 272.076,584.541 263.505,571.448 Z M 262.4,597.634 281.163,599.408 272.076,584.541 Z M 309.579,555.481 328.987,554.816 330.108,539.514 Z M 294.93,535.965 290.559,555.924 309.579,555.481 Z M 286.828,519.174 294.93,535.965 301.519,518.224 Z M 288.919,503.017 286.828,519.174 301.519,518.224 Z M 272.138,520.125 279.054,536.599 286.828,519.174 Z M 272.138,520.125 263.178,537.233 279.054,536.599 Z M 300,571.448 318.248,571.448 309.579,555.481 Z M 387.056,558.142 414.428,558.142 401.122,544.836 Z M 374.607,590.575 392.705,585.317 372.991,571.448 Z M 392.705,585.317 410.437,578.933 391.238,571.448 Z M 423.082,378.172 426.492,401.791 439.591,386.82 Z M 397.717,386.489 410.441,392.477 408.238,371.186 Z M 402.789,411.771 426.492,401.791 410.441,392.477 Z M 414.428,558.142 410.437,578.933 427.734,571.448 Z M 355.026,521.55 367.921,535.965 374.51,518.224 Z M 374.607,590.575 372.991,571.448 354.743,571.448 Z M 377.488,547.054 401.122,544.836 387.816,531.53 Z M 372.991,571.448 387.056,558.142 365.767,558.142 Z M 391.238,571.448 414.428,558.142 387.056,558.142 Z M 444.526,562.892 414.428,558.142 427.734,571.448 Z M 449.428,540.883 434.025,538.545 444.526,562.892 Z M 466.929,532.253 449.428,540.883 460.748,553.298 Z M 443.122,524.125 434.025,538.545 449.428,540.883 Z M 479.994,519.188 462.413,519.028 466.929,532.253 Z M 427.252,518.706 434.025,538.545 443.122,524.125 Z M 391.238,571.448 410.437,578.933 414.428,558.142 Z M 346.355,583.067 356.214,594.686 354.743,571.448 Z M 327.924,584.541 346.355,583.067 336.495,571.448 Z M 337.6,597.634 356.214,594.686 346.355,583.067 Z M 309.419,585.428 318.837,599.408 327.924,584.541 Z M 290.581,585.428 309.419,585.428 300,571.448 Z M 300,600 318.837,599.408 309.419,585.428 Z M 583.067,346.355 571.448,354.743 594.686,356.214 Z M 597.634,337.6 583.067,346.355 594.686,356.214 Z M 571.448,336.495 571.448,354.743 583.067,346.355 Z M 512.069,326.801 520.552,349.041 527.823,334.214 Z M 557.876,348.356 571.448,354.743 571.448,336.495 Z M 557.31,329.843 557.876,348.356 571.448,336.495 Z M 543.172,341.437 537.517,357.024 557.876,348.356 Z M 571.448,318.248 556.906,311.405 557.31,329.843 Z M 527.823,334.214 520.552,349.041 543.172,341.437 Z M 554.483,401.503 571.448,391.238 546,379.263 Z M 533.276,391.524 554.483,401.503 546,379.263 Z M 537.517,411.767 554.483,419.75 554.483,401.503 Z M 546,379.263 571.448,391.238 571.448,372.991 Z M 571.448,354.743 557.876,348.356 558.724,367.003 Z M 517.158,383.939 520.552,403.784 533.276,391.524 Z M 554.483,401.503 554.483,419.75 578.933,410.437 Z M 524.452,424.832 537.517,411.767 520.552,403.784 Z M 524.452,424.832 547.073,435.476 537.517,411.767 Z M 571.448,427.734 578.933,410.437 554.483,419.75 Z M 578.933,410.437 585.317,392.705 571.448,391.238 Z M 585.317,392.705 590.575,374.607 571.448,372.991 Z M 590.575,374.607 594.686,356.214 571.448,354.743 Z M 584.541,327.924 597.634,337.6 599.408,318.837 Z M 585.724,300 584.541,327.924 599.408,318.837 Z M 571.448,318.248 571.448,336.495 584.541,327.924 Z M 585.724,300 599.408,281.163 584.541,272.076 Z M 512.069,326.801 526.914,315.539 511.126,308.11 Z M 537.517,357.024 543.172,341.437 520.552,349.041 Z M 514.896,364.627 537.517,357.024 520.552,349.041 Z M 558.724,367.003 571.448,372.991 571.448,354.743 Z M 537.517,357.024 558.724,367.003 557.876,348.356 Z M 546,379.263 571.448,372.991 558.724,367.003 Z M 557.31,329.843 571.448,336.495 571.448,318.248 Z M 541.758,304.277 542.364,322.81 556.906,311.405 Z M 543.172,341.437 557.876,348.356 557.31,329.843 Z M 509.904,284.946 511.126,308.11 526.207,296.959 Z M 491.608,301.149 480.151,314.97 496.046,319.261 Z M 509.904,284.946 491.608,301.149 511.126,308.11 Z M 492.605,287.041 472.181,279.412 467.064,297.905 Z M 509.904,284.946 492.605,287.041 491.608,301.149 Z M 493.602,272.933 472.181,279.412 492.605,287.041 Z M 448.36,306.387 467.064,297.905 452.573,287.227 Z M 456.902,334.443 444.148,325.547 439.936,344.707 Z M 480.965,330.413 456.902,334.443 469.655,343.338 Z M 464.663,318.4 444.148,325.547 456.902,334.443 Z M 467.064,297.905 464.663,318.4 480.151,314.97 Z M 448.36,306.387 444.148,325.547 464.663,318.4 Z M 480.965,330.413 503.586,341.057 496.046,319.261 Z M 430.868,300.798 430.576,319.16 448.36,306.387 Z M 469.655,343.338 482.379,349.326 480.965,330.413 Z M 503.586,395.8 517.158,383.939 503.586,377.553 Z M 533.276,391.524 520.552,403.784 537.517,411.767 Z M 554.483,401.503 533.276,391.524 537.517,411.767 Z M 546,379.263 530.731,372.078 533.276,391.524 Z M 498.739,357.024 486.621,369.569 503.586,377.553 Z M 520.552,349.041 498.739,357.024 514.896,364.627 Z M 503.586,341.057 482.379,349.326 498.739,357.024 Z M 503.586,395.8 520.552,403.784 517.158,383.939 Z M 583.067,346.355 584.541,327.924 571.448,336.495 Z M 571.448,300 571.448,281.752 554.483,292.017 Z M 385.158,421.086 400.293,431.731 402.789,411.771 Z M 361.539,406.45 385.158,421.086 387.196,401.792 Z M 366.154,432.397 380.832,443.707 385.158,421.086 Z M 360.996,476.642 373.254,491.02 381.534,475.347 Z M 421.454,435.427 422.194,416.206 400.293,431.731 Z M 468.978,466.71 478.385,486.37 486.372,470.041 Z M 422.194,416.206 448.512,410.587 426.492,401.791 Z M 416.796,456.717 434.19,460.048 421.454,435.427 Z M 458.812,429.961 462.427,413.252 448.512,410.587 Z M 504.601,434.704 493.122,422.897 489.84,446.97 Z M 422.194,416.206 402.789,411.771 400.293,431.731 Z M 437.94,425.964 422.194,416.206 421.454,435.427 Z M 426.492,401.791 402.789,411.771 422.194,416.206 Z M 437.94,425.964 448.512,410.587 422.194,416.206 Z M 462.427,413.252 472.998,397.875 459.083,395.21 Z M 493.122,422.897 476.342,415.916 479.685,433.958 Z M 493.122,422.897 506.707,412.639 489.871,405.357 Z M 459.083,395.21 452.69,371.85 439.591,386.82 Z M 459.083,395.21 472.998,397.875 469.655,379.834 Z M 448.512,410.587 459.083,395.21 439.591,386.82 Z M 448.512,410.587 462.427,413.252 459.083,395.21 Z M 584.541,272.076 599.408,281.163 597.634,262.4 Z M 583.067,253.645 584.541,272.076 597.634,262.4 Z M 571.448,281.752 585.724,300 584.541,272.076 Z M 583.067,346.355 597.634,337.6 584.541,327.924 Z M 434.229,190.894 455.088,190.628 440.404,172.266 Z M 467.064,297.905 472.181,279.412 452.573,287.227 Z M 503.675,251.731 498.271,227.074 478.581,242.78 Z M 509.904,284.946 515.436,269.585 493.602,272.933 Z M 513.749,230.528 498.271,227.074 503.675,251.731 Z M 515.436,269.585 537.969,265.339 520.968,254.225 Z M 520.968,254.225 537.969,265.339 534.651,244.871 Z M 513.749,230.528 520.968,254.225 534.651,244.871 Z M 503.675,251.731 493.602,272.933 515.436,269.585 Z M 515.436,269.585 527.488,278.82 537.969,265.339 Z M 503.675,251.731 515.436,269.585 520.968,254.225 Z M 509.904,284.946 527.488,278.82 515.436,269.585 Z M 492.605,287.041 509.904,284.946 493.602,272.933 Z M 526.207,296.959 527.488,278.82 509.904,284.946 Z M 526.207,296.959 541.287,285.807 527.488,278.82 Z M 541.287,285.807 556.368,274.656 537.969,265.339 Z M 531.333,224.402 521.527,202.679 509.169,214.431 Z M 465.209,229.746 442.978,245.713 460.997,248.906 Z M 473.633,191.426 459.125,172.266 455.088,190.628 Z M 477.845,172.266 473.633,191.426 491.217,185.3 Z M 517.888,137.426 504.107,154.846 523.77,152.669 Z M 491.217,185.3 504.589,198.334 509.046,184.431 Z M 477.845,172.266 491.217,185.3 496.566,172.266 Z M 473.633,191.426 487.005,204.46 491.217,185.3 Z M 459.125,172.266 473.633,191.426 477.845,172.266 Z M 460.997,248.906 442.978,245.713 448.302,264.075 Z M 521.527,202.679 504.589,198.334 509.169,214.431 Z M 451.052,208.99 441.925,224.956 465.209,229.746 Z M 503.734,123.273 517.888,137.426 519.188,120.006 Z M 517.888,137.426 523.77,152.669 532.253,133.071 Z M 519.188,120.006 517.888,137.426 532.253,133.071 Z M 501.345,139.604 504.107,154.846 517.888,137.426 Z M 515.286,172.266 534.007,172.266 523.77,152.669 Z M 562.892,155.474 552.728,172.266 571.448,172.266 Z M 562.892,155.474 553.298,139.252 543.653,155.759 Z M 503.734,123.273 519.188,120.006 506.123,106.942 Z M 503.734,123.273 501.345,139.604 517.888,137.426 Z M 489.255,113.474 503.734,123.273 506.123,106.942 Z M 489.255,113.474 479.485,125.232 503.734,123.273 Z M 493.058,93.8766 489.255,113.474 506.123,106.942 Z M 472.076,99.1026 458.087,102.587 468.786,113.909 Z M 504.107,154.846 515.286,172.266 523.77,152.669 Z M 479.485,125.232 482.2,140.584 501.345,139.604 Z M 496.566,172.266 515.286,172.266 504.107,154.846 Z M 590.575,225.393 571.448,245.257 594.686,243.786 Z M 585.317,207.295 571.448,227.009 590.575,225.393 Z M 529.327,185.952 534.007,172.266 515.286,172.266 Z M 521.527,202.679 529.327,185.952 509.046,184.431 Z M 543.367,185.952 552.728,172.266 534.007,172.266 Z M 537.751,201.463 543.367,185.952 529.327,185.952 Z M 537.751,201.463 557.408,213.324 558.968,196.596 Z M 578.933,189.563 571.448,208.762 585.317,207.295 Z M 509.046,184.431 515.286,172.266 496.566,172.266 Z M 441.925,224.956 442.978,245.713 465.209,229.746 Z M 557.408,213.324 571.448,227.009 571.448,208.762 Z M 583.067,253.645 571.448,245.257 571.448,263.505 Z M 584.541,272.076 583.067,253.645 571.448,263.505 Z M 594.686,243.786 571.448,245.257 583.067,253.645 Z M 558.968,196.596 557.408,213.324 571.448,208.762 Z M 544.37,218.863 546.487,233.092 557.408,213.324 Z M 537.751,201.463 544.37,218.863 557.408,213.324 Z M 531.333,224.402 546.487,233.092 544.37,218.863 Z M 481.74,228.41 469.421,210.586 465.209,229.746 Z M 509.169,214.431 487.005,204.46 498.271,227.074 Z M 504.589,198.334 491.217,185.3 487.005,204.46 Z M 469.421,210.586 451.052,208.99 465.209,229.746 Z M 481.74,228.41 487.005,204.46 469.421,210.586 Z M 460.997,248.906 477.299,260.92 478.581,242.78 Z M 509.169,214.431 504.589,198.334 487.005,204.46 Z M 513.749,230.528 509.169,214.431 498.271,227.074 Z M 513.749,230.528 531.333,224.402 509.169,214.431 Z M 473.633,191.426 455.088,190.628 469.421,210.586 Z M 558.968,196.596 571.448,208.762 578.933,189.563 Z M 571.448,172.266 558.968,196.596 578.933,189.563 Z M 543.367,185.952 537.751,201.463 558.968,196.596 Z M 531.333,224.402 544.37,218.863 537.751,201.463 Z M 546.487,233.092 571.448,227.009 557.408,213.324 Z M 529.327,185.952 515.286,172.266 509.046,184.431 Z M 543.367,185.952 534.007,172.266 529.327,185.952 Z M 543.653,155.759 553.298,139.252 532.253,133.071 Z M 552.728,172.266 543.653,155.759 534.007,172.266 Z M 552.728,172.266 562.892,155.474 543.653,155.759 Z M 534.007,172.266 543.653,155.759 523.77,152.669 Z M 585.317,207.295 571.448,208.762 571.448,227.009 Z M 558.968,196.596 552.728,172.266 543.367,185.952 Z "></path>
</svg>
